SplineFontDB: 3.0
FontName: tsn4n-smcp
FullName: tsn4n-smcp
FamilyName: tsn4n-smcp
Weight: Regular
Copyright: Copyright (c) 2003 by Bitstream, Inc. All Rights Reserved.\nDejaVu changes are in public domain\n
Version: 2.33
ItalicAngle: 0
UnderlinePosition: -85
UnderlineWidth: 90
Ascent: 1556
Descent: 492
sfntRevision: 0x0002547a
LayerCount: 2
Layer: 0 1 "Back"  1
Layer: 1 1 "Fore"  0
NeedsXUIDChange: 1
XUID: [1021 545 1002448030 3418361]
FSType: 0
OS2Version: 1
OS2_WeightWidthSlopeOnly: 0
OS2_UseTypoMetrics: 1
CreationTime: 1298817441
ModificationTime: 1339156204
PfmFamily: 17
TTFWeight: 400
TTFWidth: 5
LineGap: 0
VLineGap: 0
Panose: 2 6 6 3 5 6 5 2 2 4
OS2TypoAscent: 1556
OS2TypoAOffset: 0
OS2TypoDescent: -492
OS2TypoDOffset: 0
OS2TypoLinegap: 0
OS2WinAscent: 1556
OS2WinAOffset: 0
OS2WinDescent: 492
OS2WinDOffset: 0
HheadAscent: 1556
HheadAOffset: 0
HheadDescent: -492
HheadDOffset: 0
OS2SubXSize: 1331
OS2SubYSize: 1433
OS2SubXOff: 0
OS2SubYOff: 286
OS2SupXSize: 1331
OS2SupYSize: 1433
OS2SupXOff: 0
OS2SupYOff: 983
OS2StrikeYSize: 102
OS2StrikeYPos: 530
OS2Vendor: 'PfEd'
OS2CodePages: 6000009f.dfd70000
OS2UnicodeRanges: e40006ff.5200f9fb.0a040020.00000000
MarkAttachClasses: 1
DEI: 91125
TtTable: prep
PUSHW_1
 511
SCANCTRL
PUSHB_1
 1
SCANTYPE
SVTCA[y-axis]
MPPEM
PUSHB_1
 8
LT
IF
PUSHB_2
 1
 1
INSTCTRL
EIF
PUSHB_2
 70
 6
CALL
IF
POP
PUSHB_1
 16
EIF
MPPEM
PUSHB_1
 20
GT
IF
POP
PUSHB_1
 128
EIF
SCVTCI
PUSHB_1
 6
CALL
NOT
IF
SVTCA[y-axis]
PUSHB_1
 2
DUP
RCVT
PUSHB_1
 3
CALL
WCVTP
PUSHB_1
 3
DUP
RCVT
PUSHB_3
 2
 84
 2
CALL
PUSHB_1
 3
CALL
WCVTP
SVTCA[x-axis]
PUSHB_1
 4
DUP
RCVT
PUSHB_1
 3
CALL
WCVTP
PUSHB_1
 6
DUP
RCVT
PUSHB_3
 4
 28
 2
CALL
PUSHB_2
 3
 70
SROUND
CALL
WCVTP
PUSHB_1
 5
DUP
RCVT
PUSHB_3
 6
 17
 2
CALL
PUSHB_2
 3
 70
SROUND
CALL
WCVTP
PUSHB_1
 7
DUP
RCVT
PUSHW_3
 4
 32767
 2
CALL
PUSHB_2
 3
 70
SROUND
CALL
WCVTP
PUSHB_1
 8
DUP
RCVT
PUSHB_3
 7
 60
 2
CALL
PUSHB_2
 3
 70
SROUND
CALL
WCVTP
EIF
PUSHB_1
 20
CALL
EndTTInstrs
TtTable: fpgm
PUSHB_1
 0
FDEF
PUSHB_1
 0

StartChar: exclam
Encoding: 33 33 1
Width: 498
VWidth: 0
GlyphClass: 2
Flags: W
HStem: -50 268<166.098 335.902> 1183 20G<162 346>
VStem: 130 242<-9.7771 177.262>
LayerCount: 2
Fore
SplineSet
130 83 m 256,0,1
 130 139 130 139 165 178.5 c 128,-1,2
 200 218 200 218 251 218 c 128,-1,3
 302 218 302 218 337 179 c 128,-1,4
 372 140 372 140 372 84 c 128,-1,5
 372 28 372 28 337 -11 c 128,-1,6
 302 -50 302 -50 251 -50 c 128,-1,7
 200 -50 200 -50 165 -11.5 c 128,-1,8
 130 27 130 27 130 83 c 256,0,1
162 1203 m 1,9,-1
 346 1203 l 1,10,-1
 303 374 l 1,11,-1
 196 374 l 1,12,-1
 162 1203 l 1,9,-1
EndSplineSet
Validated: 19457
EndChar

StartChar: quotedbl
Encoding: 34 34 2
Width: 771
VWidth: 0
GlyphClass: 2
Flags: W
HStem: 648 555<151 295 474 618>
VStem: 151 144<648 1203> 474 144<648 1203>
LayerCount: 2
Fore
SplineSet
151 648 m 1,0,-1
 151 1203 l 1,1,-1
 295 1203 l 1,2,-1
 295 648 l 1,3,-1
 151 648 l 1,0,-1
474 648 m 1,4,-1
 474 1203 l 1,5,-1
 618 1203 l 1,6,-1
 618 648 l 1,7,-1
 474 648 l 1,4,-1
EndSplineSet
Validated: 19457
EndChar

StartChar: numbersign
Encoding: 35 35 3
Width: 1447
VWidth: 0
GlyphClass: 2
Flags: W
HStem: 0 21G<276 436.275 688 850.013> 306 153<110 368 560 784 970 1244> 697 154<202 480 672 892 1078 1336>
VStem: 276 154<0 154> 610 154<1031 1185> 688 156<0 156> 1018 156<1029 1185>
DStem2: 276 0 430 0 0.271287 0.962499<41.7781 319.483 518.832 726.204 926.516 1231.17> 688 0 844 0 0.268273 0.963343<41.8505 320.537 517.827 726.178 924.431 1230.09>
LayerCount: 2
Fore
SplineSet
110 306 m 1,0,-1
 110 459 l 1,1,-1
 404 459 l 1,2,-1
 480 697 l 1,3,-1
 202 697 l 1,4,-1
 202 851 l 1,5,-1
 514 851 l 1,6,-1
 610 1185 l 1,7,-1
 764 1185 l 1,8,-1
 672 851 l 1,9,-1
 926 851 l 1,10,-1
 1018 1185 l 1,11,-1
 1174 1185 l 1,12,-1
 1078 851 l 1,13,-1
 1336 851 l 1,14,-1
 1336 697 l 1,15,-1
 1042 697 l 1,16,-1
 970 459 l 1,17,-1
 1244 459 l 1,18,-1
 1244 306 l 1,19,-1
 936 306 l 1,20,-1
 844 0 l 1,21,-1
 688 0 l 1,22,-1
 784 306 l 1,23,-1
 526 306 l 1,24,-1
 430 0 l 1,25,-1
 276 0 l 1,26,-1
 368 306 l 1,27,-1
 110 306 l 1,0,-1
560 459 m 1,28,-1
 820 459 l 1,29,-1
 892 697 l 1,30,-1
 636 697 l 1,31,-1
 560 459 l 1,28,-1
EndSplineSet
Validated: 19457
EndChar

StartChar: dollar
Encoding: 36 36 4
Width: 1062
VWidth: 0
GlyphClass: 2
Flags: W
HStem: -36 100<307.725 480 570 702.882> 420 170<570 672.672> 946 102<352.447 480 570 708.823>
VStem: 127 178<683.75 900.797> 127 98<141.443 285> 480 90<-254 -36 64 420 616 946 1048 1264> 757 191<115.437 344.522> 790 99<742 863.13>
LayerCount: 2
Fore
SplineSet
127 67 m 1,0,-1
 127 285 l 1,1,-1
 225 285 l 1,2,3
 225 177 225 177 290 120.5 c 128,-1,4
 355 64 355 64 480 64 c 1,5,-1
 480 446 l 1,6,7
 284 498 284 498 205.5 566.5 c 128,-1,8
 127 635 127 635 127 757 c 128,-1,9
 127 879 127 879 220 963.5 c 128,-1,10
 313 1048 313 1048 480 1048 c 1,11,-1
 480 1264 l 1,12,-1
 570 1264 l 1,13,-1
 570 1048 l 1,14,15
 708 1048 708 1048 889 949 c 1,16,-1
 889 742 l 1,17,-1
 790 742 l 1,18,19
 780 833 780 833 723.5 889.5 c 128,-1,20
 667 946 667 946 570 946 c 1,21,-1
 570 590 l 1,22,23
 780 535 780 535 864 464.5 c 128,-1,24
 948 394 948 394 948 266.5 c 128,-1,25
 948 139 948 139 849 51.5 c 128,-1,26
 750 -36 750 -36 570 -36 c 1,27,-1
 570 -254 l 1,28,-1
 480 -254 l 1,29,-1
 480 -36 l 1,30,31
 323 -36 323 -36 127 67 c 1,0,-1
305 791.5 m 128,-1,33
 305 725 305 725 347.5 683.5 c 128,-1,34
 390 642 390 642 480 616 c 1,35,-1
 480 946 l 1,36,37
 397 946 397 946 351 902 c 128,-1,32
 305 858 305 858 305 791.5 c 128,-1,33
570 64 m 1,38,39
 661 64 661 64 709 111.5 c 128,-1,40
 757 159 757 159 757 230 c 0,41,42
 757 371 757 371 570 420 c 1,43,-1
 570 64 l 1,38,39
EndSplineSet
Validated: 19457
EndChar

StartChar: percent
Encoding: 37 37 5
Width: 1706
VWidth: 0
GlyphClass: 2
Flags: W
HStem: -34 94<1190.53 1387.48> 560 91<311.979 506.92 1203.49 1373.37> 1140 94<310.437 508.383>
VStem: 109 144<716.195 1076.53> 380 137<-34 103> 566 145<715.627 1076.62> 987 145<123.302 482.322> 1181 137<1097 1234> 1444 145<123.277 481.707>
DStem2: 380 -34 517 -34 0.534068 0.845441<73.1674 1499.81>
LayerCount: 2
Fore
SplineSet
109 894 m 128,-1,1
 109 1046 109 1046 190.5 1140 c 128,-1,2
 272 1234 272 1234 409 1234 c 256,3,4
 420 1234 l 0,5,6
 546 1234 546 1234 628.5 1143 c 128,-1,7
 711 1052 711 1052 711 896 c 128,-1,8
 711 740 711 740 629.5 650 c 128,-1,9
 548 560 548 560 409 560 c 256,10,11
 270 560 270 560 189.5 651 c 128,-1,0
 109 742 109 742 109 894 c 128,-1,1
253 897 m 128,-1,13
 253 782 253 782 295.5 716.5 c 128,-1,14
 338 651 338 651 410 651 c 128,-1,15
 482 651 482 651 524 716.5 c 128,-1,16
 566 782 566 782 566 896 c 256,17,18
 566 1011 566 1011 524.5 1075.5 c 128,-1,19
 483 1140 483 1140 410 1140 c 128,-1,20
 337 1140 337 1140 295 1076 c 128,-1,12
 253 1012 253 1012 253 897 c 128,-1,13
380 -34 m 1,21,-1
 1181 1234 l 1,22,-1
 1318 1234 l 1,23,-1
 517 -34 l 1,24,-1
 380 -34 l 1,21,-1
987 302.5 m 128,-1,26
 987 457 987 457 1068.5 547.5 c 128,-1,27
 1150 638 1150 638 1288.5 638 c 128,-1,28
 1427 638 1427 638 1508 547 c 128,-1,29
 1589 456 1589 456 1589 302 c 256,30,31
 1589 148 1589 148 1507.5 57 c 128,-1,32
 1426 -34 1426 -34 1287.5 -34 c 128,-1,33
 1149 -34 1149 -34 1068 57 c 128,-1,25
 987 148 987 148 987 302.5 c 128,-1,26
1132 303 m 128,-1,35
 1132 189 1132 189 1174 124.5 c 128,-1,36
 1216 60 1216 60 1289 60 c 256,37,38
 1362 60 1362 60 1403 124.5 c 128,-1,39
 1444 189 1444 189 1444 302.5 c 128,-1,40
 1444 416 1444 416 1402.5 481.5 c 128,-1,41
 1361 547 1361 547 1288.5 547 c 128,-1,42
 1216 547 1216 547 1174 482 c 128,-1,34
 1132 417 1132 417 1132 303 c 128,-1,35
EndSplineSet
Validated: 19457
EndChar

StartChar: ampersand
Encoding: 38 38 6
Width: 1598
VWidth: 0
GlyphClass: 2
Flags: W
HStem: -29 121<464.46 835.74> 0 106<1319 1508> 586 107<1031 1176 1279.75 1423> 1118 107<532.475 795.947>
VStem: 119 184<247.28 524.384> 308 173<852.505 1067.69> 870 102<899 1040.79> 1176 109<385.587 586>
DStem2: 652 733 431 689 0.729103 -0.684404<-131.423 582.789 704.711 875.698>
LayerCount: 2
Fore
SplineSet
119 365 m 0,0,1
 119 579 119 579 398 739 c 1,2,3
 308 837 308 837 308 954.5 c 128,-1,4
 308 1072 308 1072 404.5 1148.5 c 128,-1,5
 501 1225 501 1225 667 1225 c 0,6,7
 778 1225 778 1225 972 1157 c 1,8,-1
 972 899 l 1,9,-1
 870 899 l 1,10,11
 847 1118 847 1118 667 1118 c 0,12,13
 584 1118 584 1118 532.5 1074.5 c 128,-1,14
 481 1031 481 1031 481 972.5 c 128,-1,15
 481 914 481 914 514 867 c 128,-1,16
 547 820 547 820 652 733 c 1,17,-1
 1106 306 l 1,18,19
 1176 441 1176 441 1176 586 c 1,20,-1
 1031 586 l 1,21,-1
 1031 693 l 1,22,-1
 1423 693 l 1,23,-1
 1423 586 l 1,24,-1
 1285 586 l 1,25,26
 1265 388 1265 388 1172 244 c 1,27,-1
 1319 106 l 1,28,-1
 1508 106 l 1,29,-1
 1508 0 l 1,30,-1
 1165 0 l 1,31,-1
 1021 135 l 1,32,33
 841 -29 841 -29 611 -29 c 128,-1,34
 381 -29 381 -29 250 77 c 128,-1,35
 119 183 119 183 119 365 c 0,0,1
303 417.5 m 128,-1,37
 303 270 303 270 401.5 181 c 128,-1,38
 500 92 500 92 648 92 c 0,39,40
 827 92 827 92 951 200 c 1,41,-1
 431 689 l 1,42,36
 303 565 303 565 303 417.5 c 128,-1,37
EndSplineSet
Validated: 19457
EndChar

StartChar: quotesingle
Encoding: 39 39 7
Width: 448
VWidth: 0
GlyphClass: 2
Flags: W
HStem: 648 555<151 295>
VStem: 151 144<648 1203>
LayerCount: 2
Fore
SplineSet
151 648 m 1,0,-1
 151 1203 l 1,1,-1
 295 1203 l 1,2,-1
 295 648 l 1,3,-1
 151 648 l 1,0,-1
EndSplineSet
Validated: 19457
EndChar

StartChar: parenleft
Encoding: 40 40 8
Width: 644
VWidth: 0
GlyphClass: 2
Flags: W
VStem: 137 184<164.074 832.701>
LayerCount: 2
Fore
SplineSet
137 498 m 0,0,1
 137 1076 137 1076 553 1254 c 1,2,-1
 553 1175 l 1,3,4
 429 1090 429 1090 375 934.5 c 128,-1,5
 321 779 321 779 321 498.5 c 128,-1,6
 321 218 321 218 375 62.5 c 128,-1,7
 429 -93 429 -93 553 -178 c 1,8,-1
 553 -257 l 1,9,10
 137 -79 137 -79 137 498 c 0,0,1
EndSplineSet
Validated: 19457
EndChar

StartChar: parenright
Encoding: 41 41 9
Width: 647
VWidth: 0
GlyphClass: 2
Flags: W
VStem: 328 184<163.853 832.797>
LayerCount: 2
Fore
SplineSet
96 -178 m 1,0,1
 220 -93 220 -93 274 62.5 c 128,-1,2
 328 218 328 218 328 498.5 c 128,-1,3
 328 779 328 779 274 934 c 128,-1,4
 220 1089 220 1089 96 1175 c 1,5,-1
 96 1254 l 1,6,7
 512 1077 512 1077 512 498 c 0,8,9
 512 -80 512 -80 96 -257 c 1,10,-1
 96 -178 l 1,0,1
EndSplineSet
Validated: 19457
EndChar

StartChar: asterisk
Encoding: 42 42 10
Width: 1009
VWidth: 0
GlyphClass: 2
Flags: W
HStem: 1205 20G<442 565>
VStem: 454 99<474 781 918 1225>
LayerCount: 2
Fore
SplineSet
111 701 m 1,0,-1
 426 849 l 1,1,-1
 111 997 l 1,2,-1
 172 1093 l 1,3,-1
 442 918 l 1,4,-1
 442 1225 l 1,5,-1
 565 1225 l 1,6,-1
 565 918 l 1,7,-1
 835 1093 l 1,8,-1
 896 997 l 1,9,-1
 581 850 l 1,10,-1
 896 701 l 1,11,-1
 835 606 l 1,12,-1
 553 781 l 1,13,-1
 553 474 l 1,14,-1
 454 474 l 1,15,-1
 454 781 l 1,16,-1
 172 606 l 1,17,-1
 111 701 l 1,0,-1
EndSplineSet
Validated: 19457
EndChar

StartChar: plus
Encoding: 43 43 11
Width: 1280
VWidth: 0
GlyphClass: 2
Flags: W
HStem: 0 21G<570 715> 422 162<118 570 715 1167>
VStem: 570 145<0 422 584 1036>
LayerCount: 2
Fore
SplineSet
118 422 m 1,0,-1
 118 584 l 1,1,-1
 570 584 l 1,2,-1
 570 1036 l 1,3,-1
 715 1036 l 1,4,-1
 715 584 l 1,5,-1
 1167 584 l 1,6,-1
 1167 422 l 1,7,-1
 715 422 l 1,8,-1
 715 0 l 1,9,-1
 570 0 l 1,10,-1
 570 422 l 1,11,-1
 118 422 l 1,0,-1
EndSplineSet
Validated: 19457
EndChar

StartChar: comma
Encoding: 44 44 12
Width: 589
VWidth: 0
GlyphClass: 2
Flags: W
HStem: -275 507
VStem: 268 178<-11.9507 232>
LayerCount: 2
Fore
SplineSet
122 -195 m 1,0,1
 268 -61 268 -61 268 195 c 2,2,-1
 268 232 l 1,3,-1
 446 232 l 1,4,5
 446 61 446 61 379.5 -62 c 128,-1,6
 313 -185 313 -185 186 -275 c 1,7,-1
 122 -195 l 1,0,1
EndSplineSet
Validated: 19457
EndChar

StartChar: hyphen
Encoding: 45 45 13
Width: 759
VWidth: 0
GlyphClass: 2
Flags: W
HStem: 363 157<152 615>
VStem: 152 463<363 520>
LayerCount: 2
Fore
SplineSet
152 363 m 1,0,-1
 152 520 l 1,1,-1
 615 520 l 1,2,-1
 615 363 l 1,3,-1
 152 363 l 1,0,-1
EndSplineSet
Validated: 19457
EndChar

StartChar: period
Encoding: 46 46 14
Width: 531
VWidth: 0
GlyphClass: 2
Flags: W
HStem: -50 268<183.098 352.902>
VStem: 147 242<-9.7771 177.262>
LayerCount: 2
Fore
SplineSet
147 83 m 260,0,1
 147 139 147 139 182 178.5 c 132,-1,2
 217 218 217 218 268 218 c 132,-1,3
 319 218 319 218 354 179 c 132,-1,4
 389 140 389 140 389 84 c 132,-1,5
 389 28 389 28 354 -11 c 132,-1,6
 319 -50 319 -50 268 -50 c 132,-1,7
 217 -50 217 -50 182 -11.5 c 132,-1,8
 147 27 147 27 147 83 c 260,0,1
EndSplineSet
Validated: 19457
EndChar

StartChar: slash
Encoding: 47 47 15
Width: 776
VWidth: 0
GlyphClass: 2
Flags: W
HStem: 1183 20G<536.147 688>
VStem: 77 611
DStem2: 77 -157 222 -157 0.324146 0.946007<47.0012 1437.62>
LayerCount: 2
Fore
SplineSet
77 -157 m 1,0,-1
 543 1203 l 1,1,-1
 688 1203 l 1,2,-1
 222 -157 l 1,3,-1
 77 -157 l 1,0,-1
EndSplineSet
Validated: 19457
EndChar

StartChar: zero
Encoding: 48 48 16
Width: 1293
VWidth: 0
GlyphClass: 2
Flags: W
HStem: -34 106<480.777 812.529> 1129 106<480.777 826.617>
VStem: 135 191<282.281 917.947> 966 191<278.947 921.038>
LayerCount: 2
Fore
SplineSet
135 600 m 128,-1,1
 135 900 135 900 250.5 1067.5 c 128,-1,2
 366 1235 366 1235 646.5 1235 c 132,-1,3
 927 1235 927 1235 1042 1067.5 c 128,-1,4
 1157 900 1157 900 1157 600 c 128,-1,5
 1157 300 1157 300 1042 133 c 128,-1,6
 927 -34 927 -34 646.5 -34 c 128,-1,7
 366 -34 366 -34 250.5 133 c 128,-1,0
 135 300 135 300 135 600 c 128,-1,1
326 600 m 128,-1,9
 326 332 326 332 401 202 c 128,-1,10
 476 72 476 72 647 72 c 256,11,12
 818 72 818 72 892 202 c 128,-1,13
 966 332 966 332 966 602 c 128,-1,14
 966 872 966 872 903 1004 c 1,15,16
 832 1129 832 1129 647 1129 c 256,17,18
 476 1129 476 1129 401 998.5 c 128,-1,8
 326 868 326 868 326 600 c 128,-1,9
EndSplineSet
Validated: 19457
EndChar

StartChar: one
Encoding: 49 49 17
Width: 1024
VWidth: 0
GlyphClass: 2
Flags: W
HStem: 0 106<117 451 635 975> 1215 20G<398.368 635>
VStem: 451 184<106 1096>
DStem2: 101 1102 151 982 0.934784 0.355218<4.11305 325.043>
LayerCount: 2
Fore
SplineSet
101 1102 m 1,0,1
 451 1235 l 1,2,3
 543 1235 543 1235 635 1235 c 1,4,-1
 635 106 l 1,5,-1
 975 106 l 1,6,-1
 975 0 l 1,7,-1
 117 0 l 1,8,-1
 117 106 l 1,9,-1
 451 106 l 1,10,11
 451 693 451 693 451 1096 c 1,12,-1
 151 982 l 1,13,-1
 101 1102 l 1,0,1
EndSplineSet
Validated: 19457
EndChar

StartChar: two
Encoding: 50 50 18
Width: 1140
VWidth: 0
GlyphClass: 2
Flags: W
HStem: 0 164<418 929> 1127 108<337.972 667.197>
VStem: 142 100<909 1033.12> 747 183<771.022 1050.94> 929 106<164 305>
LayerCount: 2
Fore
SplineSet
105 0 m 1,0,-1
 105 107 l 1,1,2
 747 620 747 620 747 888 c 0,3,4
 747 1127 747 1127 512 1127 c 0,5,6
 269 1127 269 1127 242 909 c 1,7,-1
 142 909 l 1,8,-1
 142 1112 l 1,9,10
 368 1235 368 1235 530 1235 c 4,11,12
 930 1235 930 1235 930 907 c 0,13,14
 930 721 930 721 418 164 c 1,15,-1
 929 164 l 1,16,-1
 929 305 l 1,17,-1
 1035 305 l 1,18,-1
 1035 0 l 1,19,-1
 105 0 l 1,0,-1
EndSplineSet
EndChar

StartChar: three
Encoding: 51 51 19
Width: 1089
VWidth: 0
GlyphClass: 2
Flags: W
HStem: -35 108<309.555 673.385> 590 127<443 655.727> 1127 108<340.965 668.664>
VStem: 118 101<154.694 293> 157 101<880 1044.45> 729 184<788.389 1068.64> 777 191<172.751 507.186>
LayerCount: 2
Fore
SplineSet
118 68 m 1,0,-1
 118 293 l 1,1,-1
 219 293 l 1,2,3
 219 73 219 73 503 73 c 0,4,5
 630 73 630 73 703.5 140.5 c 128,-1,6
 777 208 777 208 777 334 c 128,-1,7
 777 460 777 460 722 525 c 128,-1,8
 667 590 667 590 522 590 c 2,9,-1
 443 590 l 1,10,-1
 443 717 l 1,11,-1
 484 717 l 2,12,13
 729 717 729 717 729 927 c 0,14,15
 729 1039 729 1039 670 1083 c 128,-1,16
 611 1127 611 1127 501 1127 c 256,17,18
 258 1127 258 1127 258 880 c 1,19,-1
 157 880 l 1,20,-1
 157 1143 l 1,21,22
 364 1235 364 1235 533 1235 c 0,23,24
 699 1235 699 1235 808 1156 c 0,25,26
 913 1080 913 1080 913 956 c 0,27,28
 913 713 913 713 662 658 c 1,29,30
 823 637 823 637 895.5 548.5 c 128,-1,31
 968 460 968 460 968 304.5 c 128,-1,32
 968 149 968 149 848 57 c 128,-1,33
 728 -35 728 -35 515 -35 c 0,34,35
 304 -35 304 -35 118 68 c 1,0,-1
EndSplineSet
Validated: 19457
EndChar

StartChar: four
Encoding: 52 52 20
Width: 1218
VWidth: 0
GlyphClass: 2
Flags: W
HStem: 0 106<495 740 882 1075> 326 106<251 740 883 1111> 1205 20G<631.523 883>
VStem: 740 143<106 326 432 1140>
DStem2: 112 434 251 432 0.558806 0.829298<76.0155 936.415>
LayerCount: 2
Fore
SplineSet
112 326 m 1,0,-1
 112 434 l 1,1,-1
 645 1225 l 5,2,-1
 883 1225 l 1,3,-1
 883 432 l 1,4,-1
 1111 432 l 1,5,-1
 1111 326 l 1,6,-1
 882 326 l 1,7,-1
 882 106 l 1,8,-1
 1075 106 l 1,9,-1
 1075 0 l 1,10,-1
 495 0 l 1,11,-1
 495 106 l 1,12,-1
 740 106 l 1,13,-1
 740 326 l 1,14,-1
 112 326 l 1,0,-1
251 432 m 1,15,-1
 740 432 l 1,16,-1
 740 1140 l 1,17,-1
 251 432 l 1,15,-1
EndSplineSet
Validated: 19457
EndChar

StartChar: five
Encoding: 53 53 21
Width: 1057
VWidth: 0
GlyphClass: 2
Flags: W
HStem: -23 101<307.428 638.688> 683 115<316.55 640.77> 1039 164<273 833>
VStem: 119 102<158.813 296> 177 96<740 1039> 747 192<191.92 570.691>
LayerCount: 2
Fore
SplineSet
119 78 m 1,0,-1
 119 296 l 1,1,-1
 221 296 l 1,2,3
 221 190 221 190 291 134 c 128,-1,4
 361 78 361 78 484 78 c 128,-1,5
 607 78 607 78 677 156 c 128,-1,6
 747 234 747 234 747 380 c 128,-1,7
 747 526 747 526 679 604.5 c 128,-1,8
 611 683 611 683 475 683 c 128,-1,9
 339 683 339 683 255 584 c 1,10,-1
 177 584 l 1,11,-1
 177 1203 l 1,12,-1
 833 1203 l 5,13,-1
 833 1039 l 1,14,-1
 273 1039 l 1,15,-1
 273 740 l 1,16,17
 358 798 358 798 525.5 798 c 128,-1,18
 693 798 693 798 821 674 c 1,19,20
 939 558 939 558 939 375 c 0,21,22
 939 193 939 193 821 84 c 0,23,24
 705 -23 705 -23 483 -23 c 1,25,-1
 469 -23 l 2,26,27
 299 -23 299 -23 119 78 c 1,0,-1
EndSplineSet
Validated: 19457
EndChar

StartChar: six
Encoding: 54 54 22
Width: 1134
VWidth: 0
GlyphClass: 2
Flags: W
HStem: -35 100<450.188 723.111> 692 100<442.98 722.765> 1134 100<475.371 771.784>
VStem: 136 187<653 879.787> 821 191<177.3 584.938> 839 102<927 1067>
LayerCount: 2
Fore
SplineSet
136 579.5 m 128,-1,1
 136 882 136 882 271 1058 c 128,-1,2
 406 1234 406 1234 652 1234 c 0,3,4
 791 1234 791 1234 941 1173 c 1,5,-1
 941 927 l 1,6,-1
 839 927 l 1,7,8
 839 1028 839 1028 781.5 1081 c 128,-1,9
 724 1134 724 1134 636 1134 c 0,10,11
 479 1134 479 1134 401 1016 c 128,-1,12
 323 898 323 898 323 653 c 1,13,14
 434 792 434 792 615.5 792 c 128,-1,15
 797 792 797 792 904.5 681.5 c 128,-1,16
 1012 571 1012 571 1012 381 c 128,-1,17
 1012 191 1012 191 894 78 c 128,-1,18
 776 -35 776 -35 570.5 -35 c 128,-1,19
 365 -35 365 -35 250.5 121 c 128,-1,0
 136 277 136 277 136 579.5 c 128,-1,1
350 384.5 m 128,-1,21
 350 233 350 233 411 149 c 128,-1,22
 472 65 472 65 585 65 c 256,23,24
 698 65 698 65 759.5 146.5 c 128,-1,25
 821 228 821 228 821 379 c 256,26,27
 821 530 821 530 760 611 c 128,-1,28
 699 692 699 692 584.5 692 c 128,-1,29
 470 692 470 692 410 614 c 128,-1,20
 350 536 350 536 350 384.5 c 128,-1,21
EndSplineSet
Validated: 19457
EndChar

StartChar: seven
Encoding: 55 55 23
Width: 1053
VWidth: 0
GlyphClass: 2
Flags: W
HStem: 0 21G<320 467.01> 1039 164<216 788>
VStem: 110 106<896 1039>
DStem2: 320 0 458 0 0.410743 0.911751<56.6826 1139.54>
LayerCount: 2
Fore
SplineSet
110 896 m 1,0,-1
 110 1203 l 1,1,-1
 954 1203 l 1,2,-1
 954 1101 l 1,3,-1
 458 0 l 1,4,-1
 320 0 l 1,5,-1
 788 1039 l 1,6,-1
 216 1039 l 1,7,-1
 216 896 l 1,8,-1
 110 896 l 1,0,-1
EndSplineSet
Validated: 19457
EndChar

StartChar: eight
Encoding: 56 56 24
Width: 1130
VWidth: 0
GlyphClass: 2
Flags: W
HStem: -34 106<406.192 723.281> 590 106<439.65 689.503> 1128 106<421.642 708.358>
VStem: 123 191<162.66 489.479> 167 184<765.663 1058.55> 779 184<766.91 1057.09> 815 191<162.652 489.143>
LayerCount: 2
Fore
SplineSet
123 324 m 0,0,1
 123 454 123 454 206 538 c 128,-1,2
 289 622 289 622 439 641 c 1,3,4
 307 663 307 663 237 734.5 c 128,-1,5
 167 806 167 806 167 917 c 0,6,7
 167 1064 167 1064 273 1149 c 128,-1,8
 379 1234 379 1234 565 1234 c 256,9,10
 751 1234 751 1234 857 1149.5 c 128,-1,11
 963 1065 963 1065 963 917 c 0,12,13
 963 806 963 806 892 734.5 c 128,-1,14
 821 663 821 663 691 641 c 1,15,16
 840 622 840 622 923 538 c 128,-1,17
 1006 454 1006 454 1006 324 c 0,18,19
 1006 152 1006 152 891.5 59 c 128,-1,20
 777 -34 777 -34 565 -34 c 128,-1,21
 353 -34 353 -34 238 59 c 128,-1,22
 123 152 123 152 123 324 c 0,0,1
314 328 m 128,-1,24
 314 203 314 203 379.5 137.5 c 128,-1,25
 445 72 445 72 565 72 c 256,26,27
 684 72 684 72 749.5 137.5 c 128,-1,28
 815 203 815 203 815 327.5 c 128,-1,29
 815 452 815 452 749 521 c 128,-1,30
 683 590 683 590 565 590 c 256,31,32
 446 590 446 590 380 521.5 c 128,-1,23
 314 453 314 453 314 328 c 128,-1,24
351 912 m 128,-1,34
 351 807 351 807 408 751.5 c 128,-1,35
 465 696 465 696 565 696 c 128,-1,36
 665 696 665 696 722 751.5 c 128,-1,37
 779 807 779 807 779 912 c 128,-1,38
 779 1017 779 1017 722 1072.5 c 128,-1,39
 665 1128 665 1128 565 1128 c 132,-1,40
 465 1128 465 1128 408 1072.5 c 128,-1,33
 351 1017 351 1017 351 912 c 128,-1,34
EndSplineSet
Validated: 19457
EndChar

StartChar: nine
Encoding: 57 57 25
Width: 1121
VWidth: 0
GlyphClass: 2
Flags: W
HStem: -34 100<321.055 626.154> 27 211<173 274> 464 99<399.377 676.558> 1134 100<399.106 673.546>
VStem: 111 191<667.882 1026.33> 173 101<111.398 238> 799 186<320.404 603>
LayerCount: 2
Fore
SplineSet
111 847 m 128,-1,1
 111 1009 111 1009 229 1121.5 c 128,-1,2
 347 1234 347 1234 552 1234 c 128,-1,3
 757 1234 757 1234 871 1079.5 c 128,-1,4
 985 925 985 925 985 621.5 c 128,-1,5
 985 318 985 318 850 142 c 128,-1,6
 715 -34 715 -34 471 -34 c 0,7,8
 323 -34 323 -34 173 27 c 1,9,-1
 173 238 l 1,10,-1
 274 238 l 1,11,12
 274 137 274 137 331.5 101.5 c 128,-1,13
 389 66 389 66 477 66 c 0,14,15
 634 66 634 66 716.5 211.5 c 128,-1,16
 799 357 799 357 799 603 c 1,17,18
 688 464 688 464 506.5 464 c 128,-1,19
 325 464 325 464 218 574.5 c 128,-1,0
 111 685 111 685 111 847 c 128,-1,1
302 821 m 256,20,21
 302 725 302 725 362.5 644 c 128,-1,22
 423 563 423 563 537 563 c 256,23,24
 651 563 651 563 712 641.5 c 128,-1,25
 773 720 773 720 773 843.5 c 128,-1,26
 773 967 773 967 712 1050.5 c 128,-1,27
 651 1134 651 1134 537 1134 c 128,-1,28
 423 1134 423 1134 362.5 1053.5 c 128,-1,29
 302 973 302 973 302 821 c 256,20,21
EndSplineSet
Validated: 19457
EndChar

StartChar: colon
Encoding: 58 58 26
Width: 532
VWidth: 0
GlyphClass: 2
Flags: W
HStem: -50 268<184.128 353.418> 475 267<184.129 353.933>
VStem: 148 241<-10.2926 176.746 514.707 701.777>
LayerCount: 2
Fore
SplineSet
148 83 m 256,0,1
 148 138 148 138 183 178 c 0,2,3
 219 218 219 218 269 218 c 256,4,5
 320 218 320 218 354.5 179 c 128,-1,6
 389 140 389 140 389 83 c 256,7,8
 389 26 389 26 355 -12 c 128,-1,9
 321 -50 321 -50 269 -50 c 256,10,11
 217 -50 217 -50 182.5 -11.5 c 128,-1,12
 148 27 148 27 148 83 c 256,0,1
148 608 m 256,13,14
 148 664 148 664 183 703 c 0,15,16
 219 742 219 742 270 742 c 128,-1,17
 321 742 321 742 355 704 c 128,-1,18
 389 666 389 666 389 608 c 256,19,20
 389 551 389 551 355 513 c 128,-1,21
 321 475 321 475 269 475 c 128,-1,22
 217 475 217 475 182.5 513.5 c 128,-1,23
 148 552 148 552 148 608 c 256,13,14
EndSplineSet
Validated: 19457
EndChar

StartChar: semicolon
Encoding: 59 59 27
Width: 589
VWidth: 0
GlyphClass: 2
Flags: W
HStem: 475 267<245.063 416.903>
VStem: 206 247<514.707 701.777> 249 178<-42.155 156>
LayerCount: 2
Fore
SplineSet
95 -187 m 1,0,1
 249 -80 249 -80 249 120 c 2,2,-1
 249 156 l 1,3,-1
 427 156 l 1,4,5
 427 18 427 18 359 -80.5 c 128,-1,6
 291 -179 291 -179 161 -252 c 1,7,-1
 95 -187 l 1,0,1
213 608 m 256,8,9
 214 609 214 609 213 611 c 0,10,11
 213 663 213 663 249 702.5 c 128,-1,12
 285 742 285 742 333 742 c 256,13,14
 384 742 384 742 418.5 703 c 128,-1,15
 453 664 453 664 453 608 c 128,-1,16
 453 552 453 552 418 513.5 c 128,-1,17
 383 475 383 475 333 475 c 256,18,19
 332 475 332 475 331 475 c 0,20,21
 284 475 284 475 249 514 c 0,22,23
 206 563 206 563 206 590 c 0,24,25
 206 601 206 601 213 608 c 256,8,9
EndSplineSet
Validated: 19457
EndChar

StartChar: less
Encoding: 60 60 28
Width: 1278
VWidth: 0
GlyphClass: 2
Flags: W
DStem2: 120 600 359 516 0.939873 0.341524<195.942 1039.62> 359 516 120 435 0.939873 -0.341524<0 843.337>
LayerCount: 2
Fore
SplineSet
120 435 m 1,0,-1
 120 600 l 1,1,-1
 1152 975 l 1,2,-1
 1152 804 l 1,3,-1
 359 516 l 1,4,-1
 1152 229 l 1,5,-1
 1152 60 l 1,6,-1
 120 435 l 1,0,-1
EndSplineSet
Validated: 19457
EndChar

StartChar: equal
Encoding: 61 61 29
Width: 1339
VWidth: 0
GlyphClass: 2
Flags: W
HStem: 272 161<152 1184> 601 161<152 1184>
LayerCount: 2
Fore
SplineSet
152 272 m 1,0,-1
 152 433 l 1,1,-1
 1184 433 l 1,2,-1
 1184 272 l 1,3,-1
 152 272 l 1,0,-1
152 601 m 1,4,-1
 152 762 l 1,5,-1
 1184 762 l 1,6,-1
 1184 601 l 1,7,-1
 152 601 l 1,4,-1
EndSplineSet
Validated: 19457
EndChar

StartChar: greater
Encoding: 62 62 30
Width: 1269
VWidth: 0
GlyphClass: 2
Flags: W
DStem2: 123 974 123 807 0.940165 -0.340719<56.9 904.08> 123 228 123 60 0.939873 0.341524<0 846.839>
LayerCount: 2
Fore
SplineSet
123 60 m 1,0,-1
 123 228 l 1,1,-1
 919 517 l 1,2,-1
 123 807 l 1,3,-1
 123 974 l 1,4,-1
 1155 600 l 1,5,-1
 1155 435 l 1,6,-1
 123 60 l 1,0,-1
EndSplineSet
Validated: 19457
EndChar

StartChar: question
Encoding: 63 63 31
Width: 973
VWidth: 0
GlyphClass: 2
Flags: W
HStem: -50 268<332.098 501.387> 937 203<103 200.992> 1134 100<280.346 586.894>
VStem: 103 88<937 1045.07> 296 242<-9.7771 177.262> 361 111<341 546.16> 672 191<749.896 1051.09>
LayerCount: 2
Fore
SplineSet
103 937 m 1,0,-1
 103 1140 l 1,1,2
 291 1234 291 1234 463.5 1234 c 128,-1,3
 636 1234 636 1234 749.5 1148.5 c 128,-1,4
 863 1063 863 1063 863 917 c 0,5,6
 863 620 863 620 472 538 c 1,7,-1
 472 341 l 1,8,-1
 361 341 l 1,9,-1
 361 595 l 1,10,11
 672 661 672 661 672 906 c 0,12,13
 672 1012 672 1012 608 1073 c 128,-1,14
 544 1134 544 1134 440 1134 c 0,15,16
 227 1134 227 1134 191 937 c 1,17,-1
 103 937 l 1,0,-1
296 83 m 256,18,19
 296 139 296 139 331 178.5 c 128,-1,20
 366 218 366 218 416.5 218 c 128,-1,21
 467 218 467 218 502.5 179 c 128,-1,22
 538 140 538 140 538 84 c 128,-1,23
 538 28 538 28 502.5 -11 c 128,-1,24
 467 -50 467 -50 416 -50 c 128,-1,25
 365 -50 365 -50 330.5 -11.5 c 128,-1,26
 296 27 296 27 296 83 c 256,18,19
EndSplineSet
Validated: 19457
EndChar

StartChar: at
Encoding: 64 64 32
Width: 1738
VWidth: 0
GlyphClass: 2
Flags: W
HStem: -298 105<672.548 1147.38> 57 118<761.522 996.589> 689 118<760.939 997.541> 1066 106<680.055 1174.05>
VStem: 130 154<184.055 682.37> 523 161<256.609 608.231> 1098 141<167 210 251.18 613.438 654 787> 1527 86<347.799 740.567>
LayerCount: 2
Fore
SplineSet
130 437 m 0,0,1
 130 746 130 746 350 958 c 0,2,3
 457 1061 457 1061 601.5 1116.5 c 128,-1,4
 746 1172 746 1172 917 1172 c 128,-1,5
 1088 1172 1088 1172 1236 1105 c 128,-1,6
 1384 1038 1384 1038 1484 913 c 0,7,8
 1613 754 1613 754 1613 543.5 c 128,-1,9
 1613 333 1613 333 1474.5 206.5 c 128,-1,10
 1336 80 1336 80 1098 80 c 1,11,-1
 1098 210 l 1,12,13
 1001 57 1001 57 853 57 c 128,-1,14
 705 57 705 57 614 161 c 128,-1,15
 523 265 523 265 523 432 c 256,16,17
 523 599 523 599 613.5 703 c 128,-1,18
 704 807 704 807 853 807 c 128,-1,19
 1002 807 1002 807 1098 654 c 1,20,-1
 1098 787 l 1,21,-1
 1239 787 l 1,22,-1
 1239 167 l 1,23,24
 1376 196 1376 196 1451.5 294.5 c 128,-1,25
 1527 393 1527 393 1527 541 c 0,26,27
 1527 718 1527 718 1415 850 c 0,28,29
 1327 955 1327 955 1201 1010.5 c 128,-1,30
 1075 1066 1075 1066 927 1066 c 0,31,32
 776 1066 776 1066 622.5 998.5 c 128,-1,33
 469 931 469 931 376.5 782 c 128,-1,34
 284 633 284 633 284 437 c 0,35,36
 284 168 284 168 446 0 c 0,37,38
 633 -193 633 -193 930 -193 c 0,39,40
 1143 -193 1143 -193 1303 -81 c 1,41,-1
 1346 -132 l 1,42,43
 1164 -298 1164 -298 888 -298 c 0,44,45
 734 -298 734 -298 594 -244 c 0,46,47
 456 -190 456 -190 349 -87 c 0,48,49
 130 122 130 122 130 437 c 0,0,1
684 431.5 m 128,-1,51
 684 309 684 309 739 242 c 128,-1,52
 794 175 794 175 889 175 c 128,-1,53
 984 175 984 175 1041 235.5 c 128,-1,54
 1098 296 1098 296 1098 392 c 2,55,-1
 1098 473 l 2,56,57
 1098 569 1098 569 1040.5 629 c 128,-1,58
 983 689 983 689 888 689 c 128,-1,59
 793 689 793 689 738.5 621.5 c 128,-1,50
 684 554 684 554 684 431.5 c 128,-1,51
EndSplineSet
Validated: 19457
EndChar

StartChar: A
Encoding: 65 65 33
Width: 1420
VWidth: 0
GlyphClass: 2
Flags: W
HStem: 0 106<62 167 283 407 871 1027 1240 1358> 336 108<422 880> 1183 20G<609.778 770.715>
DStem2: 167 106 283 106 0.380241 0.924887<44.1079 292.575 409.573 995.276> 762 1203 644 986 0.399459 -0.916751<151.799 742.95 860.734 1111.53>
LayerCount: 2
Fore
SplineSet
62 0 m 1,0,-1
 62 106 l 1,1,-1
 167 106 l 1,2,-1
 618 1203 l 1,3,-1
 762 1203 l 1,4,-1
 1240 106 l 1,5,-1
 1358 106 l 1,6,-1
 1358 0 l 1,7,-1
 871 0 l 1,8,-1
 871 106 l 1,9,-1
 1027 106 l 1,10,-1
 927 336 l 1,11,-1
 377 336 l 1,12,-1
 283 106 l 1,13,-1
 407 106 l 1,14,-1
 407 0 l 1,15,-1
 62 0 l 1,0,-1
422 444 m 1,16,-1
 880 444 l 1,17,-1
 644 986 l 1,18,-1
 422 444 l 1,16,-1
EndSplineSet
EndChar

StartChar: B
Encoding: 66 66 34
Width: 1313
VWidth: 0
GlyphClass: 2
Flags: W
HStem: 0 106<140 293 477 914.411> 596 107<477 868.606> 1096 107<140 293 477 874.913>
VStem: 293 184<106 596 703 1096> 941 208<766.524 1030.96> 1010 207<196.616 505.908>
LayerCount: 2
Fore
SplineSet
140 0 m 1,0,-1
 140 106 l 1,1,-1
 293 106 l 1,2,-1
 293 1096 l 1,3,-1
 140 1096 l 1,4,-1
 140 1203 l 1,5,-1
 764 1203 l 2,6,7
 1149 1203 1149 1203 1149 905 c 0,8,9
 1149 798 1149 798 1079 734 c 128,-1,10
 1009 670 1009 670 874 656 c 1,11,12
 1042 637 1042 637 1129.5 558 c 128,-1,13
 1217 479 1217 479 1217 347 c 0,14,15
 1217 168 1217 168 1098 84 c 128,-1,16
 979 0 979 0 727 0 c 2,17,-1
 140 0 l 1,0,-1
477 106 m 1,18,-1
 724 106 l 2,19,20
 1010 106 1010 106 1010 352 c 1,21,22
 1010 596 1010 596 724 596 c 2,23,-1
 477 596 l 1,24,-1
 477 106 l 1,18,-1
477 703 m 1,25,-1
 684 703 l 2,26,27
 818 703 818 703 879.5 750.5 c 128,-1,28
 941 798 941 798 941 900.5 c 128,-1,29
 941 1003 941 1003 879.5 1049.5 c 128,-1,30
 818 1096 818 1096 684 1096 c 2,31,-1
 477 1096 l 1,32,-1
 477 703 l 1,25,-1
EndSplineSet
Validated: 19457
EndChar

StartChar: C
Encoding: 67 67 35
Width: 1278
VWidth: 0
GlyphClass: 2
Flags: W
HStem: -35 108<501.547 883.489> 1127 108<498.144 901.605>
VStem: 94 207<342.273 863.667> 1038 166<157 323> 1065 102<838 966.625>
LayerCount: 2
Fore
SplineSet
94 596.5 m 128,-1,1
 94 885 94 885 261.5 1060 c 128,-1,2
 429 1235 429 1235 703 1235 c 0,3,4
 905 1235 905 1235 1167 1110 c 1,5,-1
 1167 838 l 1,6,-1
 1065 838 l 1,7,8
 1035 986 1035 986 945 1056.5 c 128,-1,9
 855 1127 855 1127 677.5 1127 c 128,-1,10
 500 1127 500 1127 400.5 993 c 128,-1,11
 301 859 301 859 301 600 c 128,-1,12
 301 341 301 341 400 207 c 128,-1,13
 499 73 499 73 691 73 c 0,14,15
 959 73 959 73 1038 323 c 1,16,-1
 1204 323 l 1,17,18
 1093 -35 1093 -35 690 -35 c 0,19,20
 443 -35 443 -35 279 127 c 1,21,0
 94 308 94 308 94 596.5 c 128,-1,1
EndSplineSet
Validated: 19457
EndChar

StartChar: D
Encoding: 68 68 36
Width: 1397
VWidth: 0
GlyphClass: 2
Flags: W
HStem: 0 106<140 292 476 857.531> 1096 107<140 292 476 866.447>
VStem: 292 184<106 1096> 1110 208<357.13 847.9>
LayerCount: 2
Fore
SplineSet
140 0 m 1,0,-1
 140 106 l 1,1,-1
 292 106 l 1,2,-1
 292 1096 l 1,3,-1
 140 1096 l 1,4,-1
 140 1203 l 1,5,-1
 636 1203 l 2,6,7
 959 1203 959 1203 1138.5 1044.5 c 128,-1,8
 1318 886 1318 886 1318 602.5 c 128,-1,9
 1318 319 1318 319 1138 159.5 c 128,-1,10
 958 0 958 0 636 0 c 2,11,-1
 140 0 l 1,0,-1
476 106 m 1,12,-1
 626 106 l 2,13,14
 860 106 860 106 985 234.5 c 128,-1,15
 1110 363 1110 363 1110 603 c 256,16,17
 1110 843 1110 843 986 969.5 c 128,-1,18
 862 1096 862 1096 626 1096 c 2,19,-1
 476 1096 l 1,20,-1
 476 106 l 1,12,-1
EndSplineSet
Validated: 19457
EndChar

StartChar: E
Encoding: 69 69 37
Width: 1314
VWidth: 0
GlyphClass: 2
Flags: W
HStem: 0 123<478 1058> 0 106<140 294> 587 123<478 872> 1080 123<478 1044> 1096 107<140 294>
VStem: 294 184<123 587 710 1080> 872 111<448 587 710 848> 1044 110<925 1080> 1058 111<123 278>
LayerCount: 2
Fore
SplineSet
140 0 m 1,0,-1
 140 106 l 1,1,-1
 294 106 l 1,2,-1
 294 1096 l 1,3,-1
 140 1096 l 1,4,-1
 140 1203 l 1,5,-1
 1154 1203 l 1,6,-1
 1154 925 l 1,7,-1
 1044 925 l 1,8,-1
 1044 1080 l 1,9,-1
 478 1080 l 1,10,-1
 478 710 l 1,11,-1
 872 710 l 1,12,-1
 872 848 l 1,13,-1
 983 848 l 1,14,-1
 983 448 l 1,15,-1
 872 448 l 1,16,-1
 872 587 l 1,17,-1
 478 587 l 1,18,-1
 478 123 l 1,19,-1
 1058 123 l 1,20,-1
 1058 278 l 1,21,-1
 1169 278 l 1,22,-1
 1169 0 l 1,23,-1
 140 0 l 1,0,-1
EndSplineSet
Validated: 19457
EndChar

StartChar: F
Encoding: 70 70 38
Width: 1312
VWidth: 0
GlyphClass: 2
Flags: W
HStem: 0 106<140 292 476 668> 586 123<476 886> 1080 123<476 1056> 1096 107<140 292>
VStem: 292 184<106 586 709 1080> 886 111<446 586 709 848> 1056 111<925 1080>
LayerCount: 2
Fore
SplineSet
140 0 m 1,0,-1
 140 106 l 1,1,-1
 292 106 l 1,2,-1
 292 1096 l 1,3,-1
 140 1096 l 1,4,-1
 140 1203 l 1,5,-1
 1167 1203 l 1,6,-1
 1167 925 l 1,7,-1
 1056 925 l 1,8,-1
 1056 1080 l 1,9,-1
 476 1080 l 1,10,-1
 476 709 l 1,11,-1
 886 709 l 1,12,-1
 886 848 l 1,13,-1
 997 848 l 1,14,-1
 997 446 l 1,15,-1
 886 446 l 1,16,-1
 886 586 l 1,17,-1
 476 586 l 1,18,-1
 476 106 l 1,19,-1
 668 106 l 1,20,-1
 668 0 l 1,21,-1
 140 0 l 1,0,-1
EndSplineSet
Validated: 19457
EndChar

StartChar: G
Encoding: 71 71 39
Width: 1343
VWidth: 0
GlyphClass: 2
Flags: W
HStem: -35 108<508.596 951.232> 452 108<818 1044> 1127 108<510.477 918.845>
VStem: 90 207<338.048 863.98> 1044 184<135.775 452> 1079 101<843 969.125>
LayerCount: 2
Fore
SplineSet
90 601 m 128,-1,1
 90 891 90 891 259.5 1063 c 128,-1,2
 429 1235 429 1235 717 1235 c 0,3,4
 927 1235 927 1235 1180 1118 c 1,5,-1
 1180 843 l 1,6,-1
 1079 843 l 1,7,8
 1051 988 1051 988 961 1057.5 c 128,-1,9
 871 1127 871 1127 711 1127 c 0,10,11
 297 1127 297 1127 297 600 c 0,12,13
 297 340 297 340 402.5 206.5 c 128,-1,14
 508 73 508 73 700 73 c 128,-1,15
 892 73 892 73 1044 158 c 1,16,-1
 1044 452 l 1,17,-1
 818 452 l 1,18,-1
 818 560 l 1,19,-1
 1228 560 l 1,20,-1
 1228 109 l 1,21,22
 1008 -35 1008 -35 721 -35 c 0,23,24
 717 -35 717 -35 713 -35 c 0,25,26
 429 -35 429 -35 259.5 138 c 128,-1,0
 90 311 90 311 90 601 c 128,-1,1
EndSplineSet
Validated: 19457
EndChar

StartChar: H
Encoding: 72 72 40
Width: 1586
VWidth: 0
GlyphClass: 2
Flags: W
HStem: 0 106<140 293 477 630 947 1100 1284 1437> 588 123<477 1100> 1096 107<140 293 477 630 947 1100 1284 1437>
VStem: 293 184<106 588 711 1096> 1100 184<106 588 711 1096>
LayerCount: 2
Fore
SplineSet
140 0 m 1,0,-1
 140 106 l 1,1,-1
 293 106 l 1,2,-1
 293 1096 l 1,3,-1
 140 1096 l 1,4,-1
 140 1203 l 1,5,-1
 630 1203 l 1,6,-1
 630 1096 l 1,7,-1
 477 1096 l 1,8,-1
 477 711 l 1,9,-1
 1100 711 l 1,10,-1
 1100 1096 l 1,11,-1
 947 1096 l 1,12,-1
 947 1203 l 1,13,-1
 1437 1203 l 1,14,-1
 1437 1096 l 1,15,-1
 1284 1096 l 1,16,-1
 1284 106 l 1,17,-1
 1437 106 l 1,18,-1
 1437 0 l 1,19,-1
 947 0 l 1,20,-1
 947 106 l 1,21,-1
 1100 106 l 1,22,-1
 1100 588 l 1,23,-1
 477 588 l 1,24,-1
 477 106 l 1,25,-1
 630 106 l 1,26,-1
 630 0 l 1,27,-1
 140 0 l 1,0,-1
EndSplineSet
Validated: 19457
EndChar

StartChar: I
Encoding: 73 73 41
Width: 779
VWidth: 0
GlyphClass: 2
Flags: W
HStem: 0 106<140 293 477 630> 1096 107<140 293 477 630>
VStem: 293 184<106 1096>
LayerCount: 2
Fore
SplineSet
140 0 m 1,0,-1
 140 106 l 1,1,-1
 293 106 l 1,2,-1
 293 1096 l 1,3,-1
 140 1096 l 1,4,-1
 140 1203 l 1,5,-1
 630 1203 l 1,6,-1
 630 1096 l 1,7,-1
 477 1096 l 1,8,-1
 477 106 l 1,9,-1
 630 106 l 1,10,-1
 630 0 l 1,11,-1
 140 0 l 1,0,-1
EndSplineSet
Validated: 19457
EndChar

StartChar: J
Encoding: 74 74 42
Width: 945
VWidth: 0
GlyphClass: 2
Flags: W
HStem: -343 107<199.341 425.644> -275 235<56 156.585> 1096 107<288 475 659 812>
VStem: 56 103<-195.757 -40> 475 184<-186.284 1096>
LayerCount: 2
Fore
SplineSet
56 -40 m 1,0,-1
 159 -40 l 1,1,2
 159 -236 159 -236 303 -236 c 0,3,4
 399 -236 399 -236 437 -177.5 c 128,-1,5
 475 -119 475 -119 475 51 c 2,6,-1
 475 1096 l 1,7,-1
 288 1096 l 1,8,-1
 288 1203 l 1,9,-1
 812 1203 l 1,10,-1
 812 1096 l 1,11,-1
 659 1096 l 1,12,-1
 659 28 l 2,13,14
 659 -168 659 -168 575 -255.5 c 128,-1,15
 491 -343 491 -343 303 -343 c 0,16,17
 180 -343 180 -343 56 -275 c 1,18,-1
 56 -40 l 1,0,-1
EndSplineSet
Validated: 19457
EndChar

StartChar: K
Encoding: 75 75 43
Width: 1504
VWidth: 0
GlyphClass: 2
Flags: W
HStem: 0 106<140 294 478 640 1248 1384> 1096 107<140 294 478 640 888 1008 1176 1310>
VStem: 294 184<106 550 673 1096>
DStem2: 478 673 634 664 0.781994 0.623286<116.381 678.107> 634 664 478 550 0.740049 -0.672553<0 778.117>
LayerCount: 2
Fore
SplineSet
140 0 m 1,0,-1
 140 106 l 1,1,-1
 294 106 l 1,2,-1
 294 1096 l 1,3,-1
 140 1096 l 1,4,-1
 140 1203 l 1,5,-1
 640 1203 l 1,6,-1
 640 1096 l 1,7,-1
 478 1096 l 1,8,-1
 478 673 l 1,9,-1
 1008 1096 l 1,10,-1
 888 1096 l 1,11,-1
 888 1203 l 1,12,-1
 1310 1203 l 1,13,-1
 1310 1096 l 1,14,-1
 1176 1096 l 1,15,-1
 634 664 l 1,16,-1
 1248 106 l 1,17,-1
 1384 106 l 1,18,-1
 1384 0 l 1,19,-1
 1082 0 l 1,20,-1
 478 550 l 1,21,-1
 478 106 l 1,22,-1
 640 106 l 1,23,-1
 640 0 l 1,24,-1
 140 0 l 1,0,-1
EndSplineSet
Validated: 19457
EndChar

StartChar: L
Encoding: 76 76 44
Width: 1263
VWidth: 0
GlyphClass: 2
Flags: W
HStem: 0 123<477 1026> 0 106<140 293> 1096 107<140 293 477 630>
VStem: 293 184<123 1096> 1026 111<123 316>
LayerCount: 2
Fore
SplineSet
140 0 m 1,0,-1
 140 106 l 1,1,-1
 293 106 l 1,2,-1
 293 1096 l 1,3,-1
 140 1096 l 1,4,-1
 140 1203 l 1,5,-1
 630 1203 l 1,6,-1
 630 1096 l 1,7,-1
 477 1096 l 1,8,-1
 477 123 l 1,9,-1
 1026 123 l 1,10,-1
 1026 316 l 1,11,-1
 1137 316 l 1,12,-1
 1137 0 l 1,13,-1
 140 0 l 1,0,-1
EndSplineSet
Validated: 19457
EndChar

StartChar: M
Encoding: 77 77 45
Width: 1897
VWidth: 0
GlyphClass: 2
Flags: W
HStem: 0 106<144 297 408 571 1244 1407 1591 1745> 1096 107<135 297 1591 1751>
VStem: 297 111<106 990> 1407 184<106 958>
DStem2: 504 1203 408 990 0.48018 -0.87717<140.74 949.645> 960 370 961 168 0.491403 0.870933<0 731.765>
LayerCount: 2
Fore
SplineSet
135 1096 m 1,0,-1
 135 1203 l 1,1,-1
 504 1203 l 1,2,-1
 960 370 l 1,3,-1
 1430 1203 l 1,4,-1
 1751 1203 l 1,5,-1
 1751 1096 l 1,6,-1
 1591 1096 l 1,7,-1
 1591 106 l 1,8,-1
 1745 106 l 1,9,-1
 1745 0 l 1,10,-1
 1244 0 l 1,11,-1
 1244 106 l 1,12,-1
 1407 106 l 1,13,-1
 1407 958 l 1,14,-1
 961 168 l 1,15,-1
 857 168 l 1,16,-1
 408 990 l 1,17,-1
 408 106 l 1,18,-1
 571 106 l 1,19,-1
 571 0 l 1,20,-1
 144 0 l 1,21,-1
 144 106 l 1,22,-1
 297 106 l 1,23,-1
 297 1096 l 1,24,-1
 135 1096 l 1,0,-1
EndSplineSet
Validated: 19457
EndChar

StartChar: N
Encoding: 78 78 46
Width: 1632
VWidth: 0
GlyphClass: 2
Flags: W
HStem: -23 21G<1224.22 1337> 0 106<139 301 412 584> 1096 107<139 301 1055 1226 1337 1499>
VStem: 301 111<106 965> 1226 111<295 1096>
DStem2: 465 1203 412 965 0.642774 -0.766056<148.254 1184.73>
LayerCount: 2
Fore
SplineSet
139 0 m 1,0,-1
 139 106 l 1,1,-1
 301 106 l 1,2,-1
 301 1096 l 1,3,-1
 139 1096 l 1,4,-1
 139 1203 l 1,5,-1
 465 1203 l 1,6,-1
 1226 295 l 1,7,-1
 1226 1096 l 1,8,-1
 1055 1096 l 1,9,-1
 1055 1203 l 1,10,-1
 1499 1203 l 1,11,-1
 1499 1096 l 1,12,-1
 1337 1096 l 1,13,-1
 1337 -23 l 1,14,-1
 1241 -23 l 1,15,-1
 412 965 l 1,16,-1
 412 106 l 1,17,-1
 584 106 l 1,18,-1
 584 0 l 1,19,-1
 139 0 l 1,0,-1
EndSplineSet
Validated: 19457
EndChar

StartChar: O
Encoding: 79 79 47
Width: 1383
VWidth: 0
GlyphClass: 2
Flags: W
HStem: -34 107<500.083 890.857> 1127 109<502.037 889.989>
VStem: 90 207<344.208 855.292> 1096 208<341.834 866.575>
LayerCount: 2
Fore
SplineSet
90 600 m 256,0,1
 90 890 90 890 276 1073 c 0,2,3
 442 1236 442 1236 706 1236 c 128,-1,4
 970 1236 970 1236 1137 1062 c 128,-1,5
 1304 888 1304 888 1304 600 c 0,6,7
 1304 307 1304 307 1118 127 c 0,8,9
 952 -34 952 -34 698 -34 c 0,10,11
 440 -34 440 -34 276 127 c 1,12,13
 90 308 90 308 90 600 c 256,0,1
297 600 m 128,-1,15
 297 73 297 73 696 73 c 0,16,17
 893 73 893 73 994.5 206 c 128,-1,18
 1096 339 1096 339 1096 600 c 0,19,20
 1096 1127 1096 1127 696.5 1127 c 132,-1,14
 297 1127 297 1127 297 600 c 128,-1,15
EndSplineSet
Validated: 19457
EndChar

StartChar: P
Encoding: 80 80 48
Width: 1223
VWidth: 0
GlyphClass: 2
Flags: W
HStem: 0 106<140 293 477 663> 516 108<477 852.321> 1096 107<140 293 477 849.526>
VStem: 293 184<106 516 624 1096> 935 208<706.056 1014.29>
LayerCount: 2
Fore
SplineSet
140 0 m 1,0,-1
 140 106 l 1,1,-1
 293 106 l 1,2,-1
 293 1096 l 1,3,-1
 140 1096 l 1,4,-1
 140 1203 l 1,5,-1
 734 1203 l 2,6,7
 923 1203 923 1203 1033 1110.5 c 128,-1,8
 1143 1018 1143 1018 1143 860.5 c 128,-1,9
 1143 703 1143 703 1034 609.5 c 128,-1,10
 925 516 925 516 738 516 c 2,11,-1
 477 516 l 1,12,-1
 477 106 l 1,13,-1
 663 106 l 1,14,-1
 663 0 l 1,15,-1
 140 0 l 1,0,-1
477 624 m 1,16,-1
 689 624 l 2,17,18
 809 624 809 624 872 684.5 c 128,-1,19
 935 745 935 745 935 860 c 128,-1,20
 935 975 935 975 872 1035.5 c 128,-1,21
 809 1096 809 1096 689 1096 c 2,22,-1
 477 1096 l 1,23,-1
 477 624 l 1,16,-1
EndSplineSet
Validated: 19457
EndChar

StartChar: Q
Encoding: 81 81 49
Width: 1383
VWidth: 0
GlyphClass: 2
Flags: W
HStem: -283 186<905.219 1110> -35 108<503.124 739.827> 1127 109<502.037 889.989>
VStem: 90 207<336.458 855.292> 1096 208<340.973 867.009>
LayerCount: 2
Fore
SplineSet
90 600 m 128,-1,1
 90 890 90 890 276 1073 c 0,2,3
 442 1236 442 1236 706 1236 c 128,-1,4
 970 1236 970 1236 1137 1062.5 c 128,-1,5
 1304 889 1304 889 1304 601 c 0,6,7
 1304 359 1304 359 1177 194.5 c 128,-1,8
 1050 30 1050 30 826 -18 c 1,9,10
 914 -97 914 -97 1084 -97 c 2,11,-1
 1110 -97 l 1,12,-1
 1110 -283 l 1,13,14
 1107 -283 l 0,15,16
 836 -283 836 -283 716 -35 c 1,17,18
 429 -35 429 -35 259.5 137.5 c 128,-1,0
 90 310 90 310 90 600 c 128,-1,1
297 600 m 128,-1,20
 297 73 297 73 696 73 c 0,21,22
 893 73 893 73 994.5 206 c 128,-1,23
 1096 339 1096 339 1096 600 c 0,24,25
 1096 1127 1096 1127 696.5 1127 c 128,-1,19
 297 1127 297 1127 297 600 c 128,-1,20
EndSplineSet
Validated: 19457
EndChar

StartChar: R
Encoding: 82 82 50
Width: 1498
VWidth: 0
GlyphClass: 2
Flags: W
HStem: 0 106<140 292 476 648 1232 1380> 548 108<476 775.101> 1096 107<140 292 476 887.324>
VStem: 292 184<106 548 656 1096> 958 207<726.178 1026.96>
DStem2: 1052 439 874 383 0.477244 -0.878771<-170.1 378.535>
LayerCount: 2
Fore
SplineSet
140 0 m 1,0,-1
 140 106 l 1,1,-1
 292 106 l 1,2,-1
 292 1096 l 1,3,-1
 140 1096 l 1,4,-1
 140 1203 l 1,5,-1
 780 1203 l 2,6,7
 965 1203 965 1203 1065 1118.5 c 128,-1,8
 1165 1034 1165 1034 1165 880 c 0,9,10
 1165 630 1165 630 864 594 c 1,11,12
 984 565 984 565 1052 439 c 1,13,-1
 1232 106 l 1,14,-1
 1380 106 l 1,15,-1
 1380 0 l 1,16,-1
 1082 0 l 1,17,-1
 874 383 l 1,18,19
 821 487 821 487 776.5 517.5 c 128,-1,20
 732 548 732 548 654 548 c 2,21,-1
 476 548 l 1,22,-1
 476 106 l 1,23,-1
 648 106 l 1,24,-1
 648 0 l 1,25,-1
 140 0 l 1,0,-1
476 656 m 1,26,-1
 718 656 l 2,27,28
 841 656 841 656 899.5 710 c 128,-1,29
 958 764 958 764 958 876 c 256,30,31
 958 989 958 989 899 1042.5 c 128,-1,32
 840 1096 840 1096 718 1096 c 2,33,-1
 476 1096 l 1,34,-1
 476 656 l 1,26,-1
EndSplineSet
Validated: 19457
EndChar

StartChar: S
Encoding: 83 83 51
Width: 1108
VWidth: 0
GlyphClass: 2
Flags: W
HStem: -35 108<349.124 759.053> 1127 108<371.737 758.074>
VStem: 122 176<818.343 1060.12> 138 104<174.094 336> 850 181<154.484 401.754> 861 102<891 1027.82>
DStem2: 560 722 454 536 0.95898 -0.283472<-227.03 322.701>
LayerCount: 2
Fore
SplineSet
122 906 m 128,-1,1
 122 1057 122 1057 235 1146 c 128,-1,2
 348 1235 348 1235 537 1235 c 128,-1,3
 726 1235 726 1235 963 1146 c 1,4,-1
 963 891 l 1,5,-1
 861 891 l 1,6,7
 847 1016 847 1016 776 1072 c 0,8,9
 705 1127 705 1127 573 1127 c 0,10,11
 571 1127 571 1127 568 1127 c 0,12,13
 298 1127 298 1127 298 938 c 0,14,15
 298 858 298 858 348 812.5 c 128,-1,16
 398 767 398 767 560 722 c 1,17,-1
 708 678 l 2,18,19
 882 627 882 627 956.5 547 c 128,-1,20
 1031 467 1031 467 1031 333 c 0,21,22
 1031 -35 1031 -35 566 -35 c 0,23,24
 360 -35 360 -35 138 67 c 1,25,-1
 138 336 l 1,26,-1
 242 336 l 1,27,28
 242 202 242 202 320 137.5 c 128,-1,29
 398 73 398 73 548 73 c 0,30,31
 850 73 850 73 850 280 c 0,32,33
 850 361 850 361 804.5 404.5 c 128,-1,34
 759 448 759 448 613 489 c 1,35,-1
 454 536 l 2,36,37
 271 591 271 591 196.5 673 c 128,-1,0
 122 755 122 755 122 906 c 128,-1,1
EndSplineSet
Validated: 19457
EndChar

StartChar: T
Encoding: 84 84 52
Width: 1394
VWidth: 0
GlyphClass: 2
Flags: W
HStem: 0 106<443 597 780 934> 851 352<133 244 1133 1244> 1084 119<244 597 780 1133>
VStem: 133 111<851 1084> 597 183<106 1084> 1133 111<851 1084>
CounterMasks: 1 1c
LayerCount: 2
Fore
SplineSet
133 851 m 1,0,-1
 133 1203 l 1,1,-1
 1244 1203 l 1,2,-1
 1244 851 l 1,3,-1
 1133 851 l 1,4,-1
 1133 1084 l 1,5,-1
 780 1084 l 1,6,-1
 780 106 l 1,7,-1
 934 106 l 1,8,-1
 934 0 l 1,9,-1
 443 0 l 1,10,-1
 443 106 l 1,11,-1
 597 106 l 1,12,-1
 597 1084 l 1,13,-1
 244 1084 l 1,14,-1
 244 851 l 1,15,-1
 133 851 l 1,0,-1
EndSplineSet
Validated: 19457
EndChar

StartChar: U
Encoding: 85 85 53
Width: 1516
VWidth: 0
GlyphClass: 2
Flags: W
HStem: -23 131<577.37 989.336> 1096 107<111 265 448 602 964 1118 1229 1382>
VStem: 265 183<246.858 1096> 1118 111<245.625 1096>
LayerCount: 2
Fore
SplineSet
111 1096 m 1,0,-1
 111 1203 l 1,1,-1
 602 1203 l 1,2,-1
 602 1096 l 1,3,-1
 448 1096 l 1,4,-1
 448 502 l 2,5,6
 448 282 448 282 523.5 195 c 128,-1,7
 599 108 599 108 783 108 c 256,8,9
 967 108 967 108 1042.5 195 c 128,-1,10
 1118 282 1118 282 1118 502 c 2,11,-1
 1118 1096 l 1,12,-1
 964 1096 l 1,13,-1
 964 1203 l 1,14,-1
 1382 1203 l 1,15,-1
 1382 1096 l 1,16,-1
 1229 1096 l 1,17,-1
 1229 470 l 1,18,19
 1229 200 1229 200 1118 88.5 c 128,-1,20
 1007 -23 1007 -23 749 -23 c 256,21,22
 487 -23 487 -23 376 89.5 c 128,-1,23
 265 202 265 202 265 470 c 2,24,-1
 265 1096 l 1,25,-1
 111 1096 l 1,0,-1
EndSplineSet
Validated: 19457
EndChar

StartChar: V
Encoding: 86 86 54
Width: 1536
VWidth: 0
GlyphClass: 2
Flags: W
HStem: 0 21G<673.788 838.248> 1096 107<112 232 444 566 1029 1168 1282 1399>
DStem2: 444 1096 232 1096 0.379816 -0.925062<0 950.243> 805 217 830 0 0.381259 0.924468<0 951.005>
LayerCount: 2
Fore
SplineSet
112 1096 m 1,0,-1
 112 1203 l 1,1,-1
 566 1203 l 1,2,-1
 566 1096 l 1,3,-1
 444 1096 l 1,4,-1
 805 217 l 1,5,-1
 1168 1096 l 1,6,-1
 1029 1096 l 1,7,-1
 1029 1203 l 1,8,-1
 1399 1203 l 1,9,-1
 1399 1096 l 1,10,-1
 1282 1096 l 1,11,-1
 830 0 l 1,12,-1
 682 0 l 1,13,-1
 232 1096 l 1,14,-1
 112 1096 l 1,0,-1
EndSplineSet
Validated: 19457
EndChar

StartChar: W
Encoding: 87 87 55
Width: 2037
VWidth: 0
GlyphClass: 2
Flags: W
HStem: 0 21G<560.85 722.381 1307.58 1451.15> 1096 107<111 230 424 577 1534 1682 1782 1900>
DStem2: 424 1096 230 1096 0.293902 -0.955836<0 898.653> 688 237 716 0 0.303774 0.952744<0 763.093> 1117 1203 1014 934 0.305393 -0.952226<224.693 998.712> 1422 252 1445 0 0.293902 0.955836<0 883.14>
LayerCount: 2
Fore
SplineSet
111 1096 m 1,0,-1
 111 1203 l 1,1,-1
 577 1203 l 1,2,-1
 577 1096 l 1,3,-1
 424 1096 l 1,4,-1
 688 237 l 1,5,-1
 996 1203 l 1,6,-1
 1117 1203 l 1,7,-1
 1422 252 l 1,8,-1
 1682 1096 l 1,9,-1
 1534 1096 l 1,10,-1
 1534 1203 l 1,11,-1
 1900 1203 l 1,12,-1
 1900 1096 l 1,13,-1
 1782 1096 l 1,14,-1
 1445 0 l 1,15,-1
 1314 0 l 1,16,-1
 1014 934 l 1,17,-1
 716 0 l 1,18,-1
 567 0 l 1,19,-1
 230 1096 l 1,20,-1
 111 1096 l 1,0,-1
EndSplineSet
Validated: 19457
EndChar

StartChar: X
Encoding: 88 88 56
Width: 1492
VWidth: 0
GlyphClass: 2
Flags: W
HStem: 0 106<143 281 406 546 844 998 1245 1373> 1096 107<140 269 515 634 874 1048 1172 1307>
DStem2: 515 1096 269 1096 0.593476 -0.804851<0 437.612 596.436 1083.45> 281 106 406 106 0.612447 0.790512<76.5559 572.008 806.895 1252.35>
LayerCount: 2
Fore
SplineSet
140 1096 m 1,0,-1
 140 1203 l 1,1,-1
 634 1203 l 1,2,-1
 634 1096 l 1,3,-1
 515 1096 l 1,4,-1
 775 744 l 1,5,-1
 1048 1096 l 1,6,-1
 874 1096 l 1,7,-1
 874 1203 l 1,8,-1
 1307 1203 l 1,9,-1
 1307 1096 l 1,10,-1
 1172 1096 l 1,11,-1
 835 661 l 1,12,-1
 1245 106 l 1,13,-1
 1373 106 l 1,14,-1
 1373 0 l 1,15,-1
 844 0 l 1,16,-1
 844 106 l 1,17,-1
 998 106 l 1,18,-1
 709 498 l 1,19,-1
 406 106 l 1,20,-1
 546 106 l 1,21,-1
 546 0 l 1,22,-1
 143 0 l 1,23,-1
 143 106 l 1,24,-1
 281 106 l 1,25,-1
 649 581 l 1,26,-1
 269 1096 l 1,27,-1
 140 1096 l 1,0,-1
EndSplineSet
Validated: 19457
EndChar

StartChar: Y
Encoding: 89 89 57
Width: 1438
VWidth: 0
GlyphClass: 2
Flags: W
HStem: 0 106<457 623 806 967> 1096 107<113 225 457 583 939 1067 1185 1299>
VStem: 623 183<106 528>
DStem2: 457 1096 225 1096 0.573849 -0.818961<0 541.841> 769 653 806 535 0.559803 0.828626<0 533.902>
LayerCount: 2
Fore
SplineSet
113 1096 m 1,0,-1
 113 1203 l 1,1,-1
 583 1203 l 1,2,-1
 583 1096 l 1,3,-1
 457 1096 l 1,4,-1
 769 653 l 1,5,-1
 1067 1096 l 1,6,-1
 939 1096 l 1,7,-1
 939 1203 l 1,8,-1
 1299 1203 l 1,9,-1
 1299 1096 l 1,10,-1
 1185 1096 l 1,11,-1
 806 535 l 1,12,-1
 806 106 l 1,13,-1
 967 106 l 1,14,-1
 967 0 l 1,15,-1
 457 0 l 1,16,-1
 457 106 l 1,17,-1
 623 106 l 1,18,-1
 623 528 l 1,19,-1
 225 1096 l 1,20,-1
 113 1096 l 1,0,-1
EndSplineSet
Validated: 19457
EndChar

StartChar: Z
Encoding: 90 90 58
Width: 1359
VWidth: 0
GlyphClass: 2
Flags: W
HStem: 0 123<409 1099> 1080 123<274 929>
VStem: 163 111<909 1080> 1099 110<123 283>
DStem2: 129 72 409 123 0.621658 0.783289<214.012 1286.88>
LayerCount: 2
Fore
SplineSet
129 0 m 1,0,-1
 129 72 l 1,1,-1
 929 1080 l 1,2,-1
 274 1080 l 1,3,-1
 274 909 l 1,4,-1
 163 909 l 1,5,-1
 163 1203 l 1,6,-1
 1209 1203 l 1,7,-1
 1209 1131 l 1,8,-1
 409 123 l 1,9,-1
 1099 123 l 1,10,-1
 1099 283 l 1,11,-1
 1209 283 l 1,12,-1
 1209 0 l 1,13,-1
 129 0 l 1,0,-1
EndSplineSet
Validated: 19457
EndChar

StartChar: bracketleft
Encoding: 91 91 59
Width: 663
VWidth: 0
GlyphClass: 2
Flags: W
HStem: -229 107<348 569> 1157 107<348 569>
VStem: 175 394<-229 -122 1157 1264> 175 173<-122 1157>
LayerCount: 2
Fore
SplineSet
175 -229 m 1,0,-1
 175 1264 l 1,1,-1
 569 1264 l 1,2,-1
 569 1157 l 1,3,-1
 348 1157 l 1,4,-1
 348 -122 l 1,5,-1
 569 -122 l 1,6,-1
 569 -229 l 1,7,-1
 175 -229 l 1,0,-1
EndSplineSet
Validated: 19457
EndChar

StartChar: backslash
Encoding: 92 92 60
Width: 780
VWidth: 0
GlyphClass: 2
Flags: W
HStem: 1183 20G<94 245.853>
VStem: 94 611
DStem2: 239 1203 94 1203 0.324146 -0.946007<0 1390.62>
LayerCount: 2
Fore
SplineSet
94 1203 m 1,0,-1
 239 1203 l 1,1,-1
 705 -157 l 1,2,-1
 560 -157 l 1,3,-1
 94 1203 l 1,0,-1
EndSplineSet
Validated: 19457
EndChar

StartChar: bracketright
Encoding: 93 93 61
Width: 665
VWidth: 0
GlyphClass: 2
Flags: W
HStem: -229 107<98 319> 1157 107<98 319>
VStem: 98 394<-229 -122 1157 1264> 319 173<-122 1157>
LayerCount: 2
Fore
SplineSet
98 -122 m 1,0,-1
 319 -122 l 1,1,-1
 319 1157 l 1,2,-1
 98 1157 l 1,3,-1
 98 1264 l 1,4,-1
 492 1264 l 1,5,-1
 492 -229 l 1,6,-1
 98 -229 l 1,7,-1
 98 -122 l 1,0,-1
EndSplineSet
Validated: 19457
EndChar

StartChar: asciicircum
Encoding: 94 94 62
Width: 1247
VWidth: 0
GlyphClass: 2
Flags: W
HStem: 646 557
LayerCount: 2
Fore
SplineSet
109 646 m 1,0,-1
 546 1203 l 1,1,-1
 704 1203 l 1,2,-1
 1141 646 l 1,3,-1
 1018 646 l 1,4,-1
 625 1027 l 1,5,-1
 233 646 l 1,6,-1
 109 646 l 1,0,-1
EndSplineSet
Validated: 19457
EndChar

StartChar: underscore
Encoding: 95 95 63
Width: 1208
VWidth: 0
GlyphClass: 2
Flags: W
HStem: -398 81<193 1017>
LayerCount: 2
Fore
SplineSet
193 -317 m 1,0,-1
 1017 -317 l 1,1,-1
 1017 -398 l 1,2,-1
 193 -398 l 1,3,-1
 193 -317 l 1,0,-1
EndSplineSet
Validated: 19457
EndChar

StartChar: grave
Encoding: 96 96 64
Width: 598
VWidth: 0
GlyphClass: 2
Flags: W
HStem: 978 377
VStem: 101 368
LayerCount: 2
Fore
SplineSet
101 1355 m 1,0,-1
 259 1355 l 1,1,-1
 469 978 l 1,2,-1
 375 978 l 1,3,-1
 101 1355 l 1,0,-1
EndSplineSet
Validated: 19457
EndChar

StartChar: braceleft
Encoding: 123 123 65
Width: 856
VWidth: 0
GlyphClass: 2
Flags: W
HStem: -280 106<589.011 763> 439 106<109 240.836> 1158 106<589.011 763>
VStem: 359 167<-112.938 295.867 687.01 1097.5>
CounterMasks: 1 e0
LayerCount: 2
Fore
SplineSet
109 439 m 5,0,-1
 109 545 l 5,1,2
 359 545 359 545 359 967 c 4,3,4
 359 1142 359 1142 430 1203 c 132,-1,5
 501 1264 501 1264 763 1264 c 5,6,-1
 763 1158 l 5,7,8
 526 1158 526 1158 526 977 c 4,9,10
 526 523 526 523 375 493 c 5,11,12
 526 458 526 458 526 7 c 4,13,14
 526 -174 526 -174 763 -174 c 5,15,-1
 763 -280 l 5,16,17
 359 -280 359 -280 359 17 c 4,18,19
 359 439 359 439 109 439 c 5,0,-1
EndSplineSet
Validated: 19457
EndChar

StartChar: bar
Encoding: 124 124 66
Width: 495
VWidth: 0
GlyphClass: 2
Flags: W
VStem: 175 147<-389 1261>
LayerCount: 2
Fore
SplineSet
175 -389 m 1,0,-1
 175 1261 l 1,1,-1
 322 1261 l 1,2,-1
 322 -389 l 1,3,-1
 175 -389 l 1,0,-1
EndSplineSet
Validated: 19457
EndChar

StartChar: braceright
Encoding: 125 125 67
Width: 858
VWidth: 0
GlyphClass: 2
Flags: W
HStem: -280 106<97 270.989> 439 106<619.164 751> 1158 106<97 270.989>
VStem: 334 167<-112.938 295.867 687.01 1097.5>
CounterMasks: 1 e0
LayerCount: 2
Fore
SplineSet
751 439 m 1,0,1
 501 439 501 439 501 17 c 0,2,3
 501 -280 501 -280 97 -280 c 1,4,-1
 97 -174 l 1,5,6
 334 -174 334 -174 334 7 c 0,7,8
 334 458 334 458 485 493 c 1,9,10
 334 523 334 523 334 977 c 0,11,12
 334 1158 334 1158 97 1158 c 1,13,-1
 97 1264 l 1,14,15
 359 1264 359 1264 430 1203 c 128,-1,16
 501 1142 501 1142 501 967 c 0,17,18
 501 545 501 545 751 545 c 1,19,-1
 751 439 l 1,0,1
EndSplineSet
Validated: 19457
EndChar

StartChar: asciitilde
Encoding: 126 126 68
Width: 1315
VWidth: 0
GlyphClass: 2
Flags: W
HStem: 338 150<141 291> 348 170<724.045 1019.54> 488 171<292.222 591.639> 521 148<1025 1173>
LayerCount: 2
Fore
SplineSet
141 338 m 1,0,-1
 141 488 l 1,1,2
 295 659 295 659 441 659 c 0,3,4
 530 659 530 659 669.5 588.5 c 128,-1,5
 809 518 809 518 887 518 c 0,6,7
 1035 518 1035 518 1173 669 c 1,8,-1
 1173 521 l 1,9,10
 1017 348 1017 348 873 348 c 0,11,12
 775 348 775 348 621 430 c 1,13,14
 503 488 503 488 427 488 c 0,15,16
 281 488 281 488 141 338 c 1,0,-1
EndSplineSet
Validated: 19457
EndChar

StartChar: sfthyphen
Encoding: 173 173 70
Width: 759
VWidth: 0
GlyphClass: 2
Flags: W
HStem: 363 157<152 615>
VStem: 152 463<363 520>
LayerCount: 2
Fore
SplineSet
152 363 m 1,0,-1
 152 520 l 1,1,-1
 615 520 l 1,2,-1
 615 363 l 1,3,-1
 152 363 l 1,0,-1
EndSplineSet
Validated: 19457
EndChar

StartChar: uni2010
Encoding: 8208 8208 74
Width: 759
VWidth: 0
GlyphClass: 2
Flags: W
HStem: 363 157<152 615>
VStem: 152 463<363 520>
LayerCount: 2
Fore
SplineSet
152 363 m 1,0,-1
 152 520 l 1,1,-1
 615 520 l 1,2,-1
 615 363 l 1,3,-1
 152 363 l 1,0,-1
EndSplineSet
Validated: 19457
EndChar

StartChar: endash
Encoding: 8211 8211 76
Width: 975
VWidth: 0
GlyphClass: 2
Flags: W
HStem: 371 134<152 831>
VStem: 152 679<371 505>
LayerCount: 2
Fore
SplineSet
152 371 m 1,0,-1
 152 505 l 1,1,-1
 831 505 l 1,2,-1
 831 371 l 1,3,-1
 152 371 l 1,0,-1
EndSplineSet
Validated: 19457
EndChar

StartChar: quoteleft
Encoding: 8216 8216 77
Width: 535
VWidth: 0
GlyphClass: 2
Flags: W
HStem: 767 507
VStem: 129 175<767 1034.9>
LayerCount: 2
Fore
SplineSet
129 767 m 1,0,1
 129 941 129 941 184 1062 c 128,-1,2
 239 1183 239 1183 359 1274 c 1,3,-1
 421 1194 l 1,4,5
 359 1130 359 1130 331 1044 c 0,6,7
 304 961 304 961 304 839 c 0,8,9
 304 835 304 835 304 830 c 2,10,-1
 304 767 l 1,11,-1
 129 767 l 1,0,1
EndSplineSet
Validated: 19457
EndChar

StartChar: quoteright
Encoding: 8217 8217 78
Width: 532
VWidth: 0
GlyphClass: 2
Flags: W
HStem: 697 506
VStem: 232 175<936.091 1203>
LayerCount: 2
Fore
SplineSet
112 777 m 1,0,1
 175 840 175 840 203.5 926 c 128,-1,2
 232 1012 232 1012 232 1142 c 2,3,-1
 232 1203 l 1,4,-1
 407 1203 l 1,5,6
 407 1030 407 1030 351.5 909 c 128,-1,7
 296 788 296 788 176 697 c 1,8,-1
 112 777 l 1,0,1
EndSplineSet
Validated: 19457
EndChar

StartChar: quotedblleft
Encoding: 8220 8220 79
Width: 873
VWidth: 0
GlyphClass: 2
Flags: W
HStem: 767 507
VStem: 129 175<767 1034.9> 466 176<767 1035.49>
LayerCount: 2
Fore
SplineSet
129 767 m 1,0,1
 129 941 129 941 184.5 1062 c 128,-1,2
 240 1183 240 1183 359 1274 c 1,3,-1
 422 1194 l 1,4,5
 360 1130 360 1130 332 1044.5 c 128,-1,6
 304 959 304 959 304 830 c 2,7,-1
 304 767 l 1,8,-1
 129 767 l 1,0,1
466 767 m 1,9,10
 466 942 466 942 521.5 1062.5 c 128,-1,11
 577 1183 577 1183 696 1274 c 1,12,-1
 759 1194 l 1,13,14
 698 1130 698 1130 670 1044.5 c 128,-1,15
 642 959 642 959 642 830 c 2,16,-1
 642 767 l 1,17,-1
 466 767 l 1,9,10
EndSplineSet
Validated: 19457
EndChar

StartChar: quotedblright
Encoding: 8221 8221 80
Width: 868
VWidth: 0
GlyphClass: 2
Flags: W
HStem: 697 506
VStem: 231 175<936.091 1203> 568 175<934.908 1203>
LayerCount: 2
Fore
SplineSet
112 777 m 1,0,1
 175 840 175 840 203 926 c 128,-1,2
 231 1012 231 1012 231 1142 c 2,3,-1
 231 1203 l 1,4,-1
 406 1203 l 1,5,6
 406 1030 406 1030 350.5 909 c 128,-1,7
 295 788 295 788 175 697 c 1,8,-1
 112 777 l 1,0,1
451 777 m 1,9,10
 512 840 512 840 540 925.5 c 128,-1,11
 568 1011 568 1011 568 1140 c 2,12,-1
 568 1203 l 1,13,-1
 743 1203 l 1,14,15
 743 1028 743 1028 687.5 908 c 128,-1,16
 632 788 632 788 514 697 c 1,17,-1
 451 777 l 1,9,10
EndSplineSet
Validated: 19457
EndChar

StartChar: bullet
Encoding: 8226 8226 81
Width: 805
VWidth: 0
GlyphClass: 2
Flags: W
HStem: 316 593<257.644 546.098>
VStem: 133 537<448.125 778.281>
LayerCount: 2
Fore
SplineSet
133 613.5 m 128,-1,1
 133 738 133 738 211 823.5 c 128,-1,2
 289 909 289 909 402 909 c 128,-1,3
 515 909 515 909 592.5 823.5 c 128,-1,4
 670 738 670 738 670 613 c 128,-1,5
 670 488 670 488 593 402 c 128,-1,6
 516 316 516 316 402 316 c 256,7,8
 289 316 289 316 211 402.5 c 128,-1,0
 133 489 133 489 133 613.5 c 128,-1,1
EndSplineSet
Validated: 19457
EndChar

StartChar: uni2023
Encoding: 8227 8227 82
Width: 859
VWidth: 0
GlyphClass: 2
Flags: W
HStem: 310 606
VStem: 156 610<5 1221>
LayerCount: 2
Fore
SplineSet
156 310 m 1,0,-1
 156 916 l 1,1,-1
 766 613 l 1,2,-1
 156 310 l 1,0,-1
EndSplineSet
Validated: 19457
EndChar

StartChar: a
Encoding: 97 97 83
Width: 1316
VWidth: 0
Flags: HW
HStem: 0 106<10 115 231 355 819 975 1188 1306> 336 108<370 828> 1183 20G<557.778 718.715>
DStem2: 115 106 231 106 0.380241 0.924887<44.1079 292.575 409.573 995.276> 710 1203 592 986 0.399459 -0.916751<151.799 742.95 860.734 1111.53>
LayerCount: 2
Fore
SplineSet
10 0 m 1,0,-1
 10 106 l 1,1,-1
 115 106 l 1,2,-1
 566 1203 l 1,3,-1
 710 1203 l 1,4,-1
 1188 106 l 1,5,-1
 1306 106 l 1,6,-1
 1306 0 l 1,7,-1
 819 0 l 1,8,-1
 819 106 l 1,9,-1
 975 106 l 1,10,-1
 875 336 l 1,11,-1
 325 336 l 1,12,-1
 231 106 l 1,13,-1
 355 106 l 1,14,-1
 355 0 l 1,15,-1
 10 0 l 1,0,-1
370 444 m 1,16,-1
 828 444 l 1,17,-1
 592 986 l 1,18,-1
 370 444 l 1,16,-1
EndSplineSet
EndChar

StartChar: b
Encoding: 98 98 84
Width: 1289
VWidth: 0
Flags: W
HStem: 0 106<140 293 477 914.411> 596 107<477 868.606> 1096 107<140 293 477 874.913>
VStem: 293 184<106 596 703 1096> 941 208<766.524 1030.96> 1010 207<196.616 505.908>
LayerCount: 2
Fore
SplineSet
140 0 m 1,0,-1
 140 106 l 1,1,-1
 293 106 l 1,2,-1
 293 1096 l 1,3,-1
 140 1096 l 1,4,-1
 140 1203 l 1,5,-1
 764 1203 l 2,6,7
 1149 1203 1149 1203 1149 905 c 0,8,9
 1149 798 1149 798 1079 734 c 128,-1,10
 1009 670 1009 670 874 656 c 1,11,12
 1042 637 1042 637 1129.5 558 c 128,-1,13
 1217 479 1217 479 1217 347 c 0,14,15
 1217 168 1217 168 1098 84 c 128,-1,16
 979 0 979 0 727 0 c 2,17,-1
 140 0 l 1,0,-1
477 106 m 1,18,-1
 724 106 l 2,19,20
 1010 106 1010 106 1010 352 c 1,21,22
 1010 596 1010 596 724 596 c 2,23,-1
 477 596 l 1,24,-1
 477 106 l 1,18,-1
477 703 m 1,25,-1
 684 703 l 2,26,27
 818 703 818 703 879.5 750.5 c 128,-1,28
 941 798 941 798 941 900.5 c 128,-1,29
 941 1003 941 1003 879.5 1049.5 c 128,-1,30
 818 1096 818 1096 684 1096 c 2,31,-1
 477 1096 l 1,32,-1
 477 703 l 1,25,-1
EndSplineSet
Validated: 19457
EndChar

StartChar: c
Encoding: 99 99 85
Width: 1278
VWidth: 0
Flags: W
HStem: -35 108<501.547 883.489> 1127 108<498.144 901.605>
VStem: 94 207<342.273 863.667> 1038 166<157 323> 1065 102<838 966.625>
LayerCount: 2
Fore
SplineSet
94 596.5 m 128,-1,1
 94 885 94 885 261.5 1060 c 128,-1,2
 429 1235 429 1235 703 1235 c 0,3,4
 905 1235 905 1235 1167 1110 c 1,5,-1
 1167 838 l 1,6,-1
 1065 838 l 1,7,8
 1035 986 1035 986 945 1056.5 c 128,-1,9
 855 1127 855 1127 677.5 1127 c 128,-1,10
 500 1127 500 1127 400.5 993 c 128,-1,11
 301 859 301 859 301 600 c 128,-1,12
 301 341 301 341 400 207 c 128,-1,13
 499 73 499 73 691 73 c 0,14,15
 959 73 959 73 1038 323 c 1,16,-1
 1204 323 l 1,17,18
 1093 -35 1093 -35 690 -35 c 0,19,20
 443 -35 443 -35 279 127 c 1,21,0
 94 308 94 308 94 596.5 c 128,-1,1
EndSplineSet
Validated: 19457
EndChar

StartChar: d
Encoding: 100 100 86
Width: 1397
VWidth: 0
Flags: W
HStem: 0 106<140 292 476 857.531> 1096 107<140 292 476 866.447>
VStem: 292 184<106 1096> 1110 208<357.13 847.9>
LayerCount: 2
Fore
SplineSet
140 0 m 1,0,-1
 140 106 l 1,1,-1
 292 106 l 1,2,-1
 292 1096 l 1,3,-1
 140 1096 l 1,4,-1
 140 1203 l 1,5,-1
 636 1203 l 2,6,7
 959 1203 959 1203 1138.5 1044.5 c 128,-1,8
 1318 886 1318 886 1318 602.5 c 128,-1,9
 1318 319 1318 319 1138 159.5 c 128,-1,10
 958 0 958 0 636 0 c 2,11,-1
 140 0 l 1,0,-1
476 106 m 1,12,-1
 626 106 l 2,13,14
 860 106 860 106 985 234.5 c 128,-1,15
 1110 363 1110 363 1110 603 c 256,16,17
 1110 843 1110 843 986 969.5 c 128,-1,18
 862 1096 862 1096 626 1096 c 2,19,-1
 476 1096 l 1,20,-1
 476 106 l 1,12,-1
EndSplineSet
Validated: 19457
EndChar

StartChar: e
Encoding: 101 101 87
Width: 1314
VWidth: 0
Flags: W
HStem: 0 123<478 1058> 0 106<140 294> 587 123<478 872> 1080 123<478 1044> 1096 107<140 294>
VStem: 294 184<123 587 710 1080> 872 111<448 587 710 848> 1044 110<925 1080> 1058 111<123 278>
LayerCount: 2
Fore
SplineSet
140 0 m 1,0,-1
 140 106 l 1,1,-1
 294 106 l 1,2,-1
 294 1096 l 1,3,-1
 140 1096 l 1,4,-1
 140 1203 l 1,5,-1
 1154 1203 l 1,6,-1
 1154 925 l 1,7,-1
 1044 925 l 1,8,-1
 1044 1080 l 1,9,-1
 478 1080 l 1,10,-1
 478 710 l 1,11,-1
 872 710 l 1,12,-1
 872 848 l 1,13,-1
 983 848 l 1,14,-1
 983 448 l 1,15,-1
 872 448 l 1,16,-1
 872 587 l 1,17,-1
 478 587 l 1,18,-1
 478 123 l 1,19,-1
 1058 123 l 1,20,-1
 1058 278 l 1,21,-1
 1169 278 l 1,22,-1
 1169 0 l 1,23,-1
 140 0 l 1,0,-1
EndSplineSet
Validated: 19457
EndChar

StartChar: f
Encoding: 102 102 88
Width: 1312
VWidth: 0
Flags: W
HStem: 0 106<140 292 476 668> 586 123<476 886> 1080 123<476 1056> 1096 107<140 292>
VStem: 292 184<106 586 709 1080> 886 111<446 586 709 848> 1056 111<925 1080>
LayerCount: 2
Fore
SplineSet
140 0 m 1,0,-1
 140 106 l 1,1,-1
 292 106 l 1,2,-1
 292 1096 l 1,3,-1
 140 1096 l 1,4,-1
 140 1203 l 1,5,-1
 1167 1203 l 1,6,-1
 1167 925 l 1,7,-1
 1056 925 l 1,8,-1
 1056 1080 l 1,9,-1
 476 1080 l 1,10,-1
 476 709 l 1,11,-1
 886 709 l 1,12,-1
 886 848 l 1,13,-1
 997 848 l 1,14,-1
 997 446 l 1,15,-1
 886 446 l 1,16,-1
 886 586 l 1,17,-1
 476 586 l 1,18,-1
 476 106 l 1,19,-1
 668 106 l 1,20,-1
 668 0 l 1,21,-1
 140 0 l 1,0,-1
EndSplineSet
Validated: 19457
EndChar

StartChar: g
Encoding: 103 103 89
Width: 1343
VWidth: 0
Flags: W
HStem: -35 108<508.596 951.232> 452 108<818 1044> 1127 108<510.477 918.845>
VStem: 90 207<338.048 863.98> 1044 184<135.775 452> 1079 101<843 969.125>
LayerCount: 2
Fore
SplineSet
90 601 m 128,-1,1
 90 891 90 891 259.5 1063 c 128,-1,2
 429 1235 429 1235 717 1235 c 0,3,4
 927 1235 927 1235 1180 1118 c 1,5,-1
 1180 843 l 1,6,-1
 1079 843 l 1,7,8
 1051 988 1051 988 961 1057.5 c 128,-1,9
 871 1127 871 1127 711 1127 c 0,10,11
 297 1127 297 1127 297 600 c 0,12,13
 297 340 297 340 402.5 206.5 c 128,-1,14
 508 73 508 73 700 73 c 128,-1,15
 892 73 892 73 1044 158 c 1,16,-1
 1044 452 l 1,17,-1
 818 452 l 1,18,-1
 818 560 l 1,19,-1
 1228 560 l 1,20,-1
 1228 109 l 1,21,22
 1008 -35 1008 -35 721 -35 c 0,23,24
 717 -35 717 -35 713 -35 c 0,25,26
 429 -35 429 -35 259.5 138 c 128,-1,0
 90 311 90 311 90 601 c 128,-1,1
EndSplineSet
Validated: 19457
EndChar

StartChar: h
Encoding: 104 104 90
Width: 1586
VWidth: 0
Flags: W
HStem: 0 106<140 293 477 630 947 1100 1284 1437> 588 123<477 1100> 1096 107<140 293 477 630 947 1100 1284 1437>
VStem: 293 184<106 588 711 1096> 1100 184<106 588 711 1096>
LayerCount: 2
Fore
SplineSet
140 0 m 1,0,-1
 140 106 l 1,1,-1
 293 106 l 1,2,-1
 293 1096 l 1,3,-1
 140 1096 l 1,4,-1
 140 1203 l 1,5,-1
 630 1203 l 1,6,-1
 630 1096 l 1,7,-1
 477 1096 l 1,8,-1
 477 711 l 1,9,-1
 1100 711 l 1,10,-1
 1100 1096 l 1,11,-1
 947 1096 l 1,12,-1
 947 1203 l 1,13,-1
 1437 1203 l 1,14,-1
 1437 1096 l 1,15,-1
 1284 1096 l 1,16,-1
 1284 106 l 1,17,-1
 1437 106 l 1,18,-1
 1437 0 l 1,19,-1
 947 0 l 1,20,-1
 947 106 l 1,21,-1
 1100 106 l 1,22,-1
 1100 588 l 1,23,-1
 477 588 l 1,24,-1
 477 106 l 1,25,-1
 630 106 l 1,26,-1
 630 0 l 1,27,-1
 140 0 l 1,0,-1
EndSplineSet
Validated: 19457
EndChar

StartChar: i
Encoding: 105 105 91
Width: 779
VWidth: 0
Flags: W
HStem: 0 106<140 293 477 630> 1096 107<140 293 477 630>
VStem: 293 184<106 1096>
LayerCount: 2
Fore
SplineSet
140 0 m 1,0,-1
 140 106 l 1,1,-1
 293 106 l 1,2,-1
 293 1096 l 1,3,-1
 140 1096 l 1,4,-1
 140 1203 l 1,5,-1
 630 1203 l 1,6,-1
 630 1096 l 1,7,-1
 477 1096 l 1,8,-1
 477 106 l 1,9,-1
 630 106 l 1,10,-1
 630 0 l 1,11,-1
 140 0 l 1,0,-1
EndSplineSet
Validated: 19457
EndChar

StartChar: j
Encoding: 106 106 92
Width: 945
VWidth: 0
Flags: W
HStem: -343 107<199.341 425.644> -275 235<56 156.585> 1096 107<288 475 659 812>
VStem: 56 103<-195.757 -40> 475 184<-186.284 1096>
LayerCount: 2
Fore
SplineSet
56 -40 m 1,0,-1
 159 -40 l 1,1,2
 159 -236 159 -236 303 -236 c 0,3,4
 399 -236 399 -236 437 -177.5 c 128,-1,5
 475 -119 475 -119 475 51 c 2,6,-1
 475 1096 l 1,7,-1
 288 1096 l 1,8,-1
 288 1203 l 1,9,-1
 812 1203 l 1,10,-1
 812 1096 l 1,11,-1
 659 1096 l 1,12,-1
 659 28 l 2,13,14
 659 -168 659 -168 575 -255.5 c 128,-1,15
 491 -343 491 -343 303 -343 c 0,16,17
 180 -343 180 -343 56 -275 c 1,18,-1
 56 -40 l 1,0,-1
EndSplineSet
Validated: 19457
EndChar

StartChar: k
Encoding: 107 107 93
Width: 1504
VWidth: 0
Flags: W
HStem: 0 106<140 294 478 640 1248 1384> 1096 107<140 294 478 640 888 1008 1176 1310>
VStem: 294 184<106 550 673 1096>
DStem2: 478 673 634 664 0.781994 0.623286<116.381 678.107> 634 664 478 550 0.740049 -0.672553<0 778.117>
LayerCount: 2
Fore
SplineSet
140 0 m 1,0,-1
 140 106 l 1,1,-1
 294 106 l 1,2,-1
 294 1096 l 1,3,-1
 140 1096 l 1,4,-1
 140 1203 l 1,5,-1
 640 1203 l 1,6,-1
 640 1096 l 1,7,-1
 478 1096 l 1,8,-1
 478 673 l 1,9,-1
 1008 1096 l 1,10,-1
 888 1096 l 1,11,-1
 888 1203 l 1,12,-1
 1310 1203 l 1,13,-1
 1310 1096 l 1,14,-1
 1176 1096 l 1,15,-1
 634 664 l 1,16,-1
 1248 106 l 1,17,-1
 1384 106 l 1,18,-1
 1384 0 l 1,19,-1
 1082 0 l 1,20,-1
 478 550 l 1,21,-1
 478 106 l 1,22,-1
 640 106 l 1,23,-1
 640 0 l 1,24,-1
 140 0 l 1,0,-1
EndSplineSet
Validated: 19457
EndChar

StartChar: l
Encoding: 108 108 94
Width: 1237
VWidth: 0
Flags: HW
HStem: 0 123<477 1026> 0 106<140 293> 1096 107<140 293 477 630>
VStem: 293 184<123 1096> 1026 111<123 316>
LayerCount: 2
Fore
SplineSet
140 0 m 1,0,-1
 140 106 l 1,1,-1
 293 106 l 1,2,-1
 293 1096 l 1,3,-1
 140 1096 l 1,4,-1
 140 1203 l 1,5,-1
 630 1203 l 1,6,-1
 630 1096 l 1,7,-1
 477 1096 l 1,8,-1
 477 123 l 1,9,-1
 1026 123 l 1,10,-1
 1026 316 l 1,11,-1
 1137 316 l 1,12,-1
 1137 0 l 1,13,-1
 140 0 l 1,0,-1
EndSplineSet
Validated: 19457
EndChar

StartChar: m
Encoding: 109 109 95
Width: 1897
VWidth: 0
Flags: W
HStem: 0 106<144 297 408 571 1244 1407 1591 1745> 1096 107<135 297 1591 1751>
VStem: 297 111<106 990> 1407 184<106 958>
DStem2: 504 1203 408 990 0.48018 -0.87717<140.74 949.645> 960 370 961 168 0.491403 0.870933<0 731.765>
LayerCount: 2
Fore
SplineSet
135 1096 m 1,0,-1
 135 1203 l 1,1,-1
 504 1203 l 1,2,-1
 960 370 l 1,3,-1
 1430 1203 l 1,4,-1
 1751 1203 l 1,5,-1
 1751 1096 l 1,6,-1
 1591 1096 l 1,7,-1
 1591 106 l 1,8,-1
 1745 106 l 1,9,-1
 1745 0 l 1,10,-1
 1244 0 l 1,11,-1
 1244 106 l 1,12,-1
 1407 106 l 1,13,-1
 1407 958 l 1,14,-1
 961 168 l 1,15,-1
 857 168 l 1,16,-1
 408 990 l 1,17,-1
 408 106 l 1,18,-1
 571 106 l 1,19,-1
 571 0 l 1,20,-1
 144 0 l 1,21,-1
 144 106 l 1,22,-1
 297 106 l 1,23,-1
 297 1096 l 1,24,-1
 135 1096 l 1,0,-1
EndSplineSet
Validated: 19457
EndChar

StartChar: n
Encoding: 110 110 96
Width: 1632
VWidth: 0
Flags: W
HStem: -23 21G<1224.22 1337> 0 106<139 301 412 584> 1096 107<139 301 1055 1226 1337 1499>
VStem: 301 111<106 965> 1226 111<295 1096>
DStem2: 465 1203 412 965 0.642774 -0.766056<148.254 1184.73>
LayerCount: 2
Fore
SplineSet
139 0 m 1,0,-1
 139 106 l 1,1,-1
 301 106 l 1,2,-1
 301 1096 l 1,3,-1
 139 1096 l 1,4,-1
 139 1203 l 1,5,-1
 465 1203 l 1,6,-1
 1226 295 l 1,7,-1
 1226 1096 l 1,8,-1
 1055 1096 l 1,9,-1
 1055 1203 l 1,10,-1
 1499 1203 l 1,11,-1
 1499 1096 l 1,12,-1
 1337 1096 l 1,13,-1
 1337 -23 l 1,14,-1
 1241 -23 l 1,15,-1
 412 965 l 1,16,-1
 412 106 l 1,17,-1
 584 106 l 1,18,-1
 584 0 l 1,19,-1
 139 0 l 1,0,-1
EndSplineSet
Validated: 19457
EndChar

StartChar: o
Encoding: 111 111 97
Width: 1383
VWidth: 0
Flags: W
HStem: -34 107<500.083 890.857> 1127 109<502.037 889.989>
VStem: 90 207<344.208 855.292> 1096 208<341.834 866.575>
LayerCount: 2
Fore
SplineSet
90 600 m 256,0,1
 90 890 90 890 276 1073 c 0,2,3
 442 1236 442 1236 706 1236 c 128,-1,4
 970 1236 970 1236 1137 1062 c 128,-1,5
 1304 888 1304 888 1304 600 c 0,6,7
 1304 307 1304 307 1118 127 c 0,8,9
 952 -34 952 -34 698 -34 c 0,10,11
 440 -34 440 -34 276 127 c 1,12,13
 90 308 90 308 90 600 c 256,0,1
297 600 m 128,-1,15
 297 73 297 73 696 73 c 0,16,17
 893 73 893 73 994.5 206 c 128,-1,18
 1096 339 1096 339 1096 600 c 0,19,20
 1096 1127 1096 1127 696.5 1127 c 128,-1,14
 297 1127 297 1127 297 600 c 128,-1,15
EndSplineSet
Validated: 19457
EndChar

StartChar: p
Encoding: 112 112 98
Width: 1223
VWidth: 0
Flags: W
HStem: 0 106<140 293 477 663> 516 108<477 852.321> 1096 107<140 293 477 849.526>
VStem: 293 184<106 516 624 1096> 935 208<706.056 1014.29>
LayerCount: 2
Fore
SplineSet
140 0 m 1,0,-1
 140 106 l 1,1,-1
 293 106 l 1,2,-1
 293 1096 l 1,3,-1
 140 1096 l 1,4,-1
 140 1203 l 1,5,-1
 734 1203 l 2,6,7
 923 1203 923 1203 1033 1110.5 c 128,-1,8
 1143 1018 1143 1018 1143 860.5 c 128,-1,9
 1143 703 1143 703 1034 609.5 c 128,-1,10
 925 516 925 516 738 516 c 2,11,-1
 477 516 l 1,12,-1
 477 106 l 1,13,-1
 663 106 l 1,14,-1
 663 0 l 1,15,-1
 140 0 l 1,0,-1
477 624 m 1,16,-1
 689 624 l 2,17,18
 809 624 809 624 872 684.5 c 128,-1,19
 935 745 935 745 935 860 c 128,-1,20
 935 975 935 975 872 1035.5 c 128,-1,21
 809 1096 809 1096 689 1096 c 2,22,-1
 477 1096 l 1,23,-1
 477 624 l 1,16,-1
EndSplineSet
Validated: 19457
EndChar

StartChar: q
Encoding: 113 113 99
Width: 1393
VWidth: 0
Flags: HW
HStem: -283 186<915.219 1120> -35 108<513.124 749.827> 1127 109<512.037 899.989>
VStem: 100 207<336.458 855.292> 1106 208<340.973 867.009>
LayerCount: 2
Fore
SplineSet
100 600 m 128,-1,1
 100 890 100 890 286 1073 c 0,2,3
 452 1236 452 1236 716 1236 c 128,-1,4
 980 1236 980 1236 1147 1062.5 c 128,-1,5
 1314 889 1314 889 1314 601 c 0,6,7
 1314 359 1314 359 1187 194.5 c 128,-1,8
 1060 30 1060 30 836 -18 c 1,9,10
 924 -97 924 -97 1094 -97 c 2,11,-1
 1120 -97 l 1,12,-1
 1120 -283 l 1,13,14
 1117 -283 l 0,15,16
 846 -283 846 -283 726 -35 c 1,17,18
 439 -35 439 -35 269.5 137.5 c 128,-1,0
 100 310 100 310 100 600 c 128,-1,1
307 600 m 128,-1,20
 307 73 307 73 706 73 c 0,21,22
 903 73 903 73 1004.5 206 c 128,-1,23
 1106 339 1106 339 1106 600 c 0,24,25
 1106 1127 1106 1127 706.5 1127 c 128,-1,19
 307 1127 307 1127 307 600 c 128,-1,20
EndSplineSet
EndChar

StartChar: r
Encoding: 114 114 100
Width: 1498
VWidth: 0
Flags: W
HStem: 0 106<140 292 476 648 1232 1380> 548 108<476 775.101> 1096 107<140 292 476 887.324>
VStem: 292 184<106 548 656 1096> 958 207<726.178 1026.96>
DStem2: 1052 439 874 383 0.477244 -0.878771<-170.1 378.535>
LayerCount: 2
Fore
SplineSet
140 0 m 1,0,-1
 140 106 l 1,1,-1
 292 106 l 1,2,-1
 292 1096 l 1,3,-1
 140 1096 l 1,4,-1
 140 1203 l 1,5,-1
 780 1203 l 2,6,7
 965 1203 965 1203 1065 1118.5 c 128,-1,8
 1165 1034 1165 1034 1165 880 c 0,9,10
 1165 630 1165 630 864 594 c 1,11,12
 984 565 984 565 1052 439 c 1,13,-1
 1232 106 l 1,14,-1
 1380 106 l 1,15,-1
 1380 0 l 1,16,-1
 1082 0 l 1,17,-1
 874 383 l 1,18,19
 821 487 821 487 776.5 517.5 c 128,-1,20
 732 548 732 548 654 548 c 2,21,-1
 476 548 l 1,22,-1
 476 106 l 1,23,-1
 648 106 l 1,24,-1
 648 0 l 1,25,-1
 140 0 l 1,0,-1
476 656 m 1,26,-1
 718 656 l 2,27,28
 841 656 841 656 899.5 710 c 128,-1,29
 958 764 958 764 958 876 c 256,30,31
 958 989 958 989 899 1042.5 c 128,-1,32
 840 1096 840 1096 718 1096 c 2,33,-1
 476 1096 l 1,34,-1
 476 656 l 1,26,-1
EndSplineSet
Validated: 19457
EndChar

StartChar: s
Encoding: 115 115 101
Width: 1108
VWidth: 0
Flags: W
HStem: -35 108<349.124 759.053> 1127 108<371.737 758.074>
VStem: 122 176<818.343 1060.12> 138 104<174.094 336> 850 181<154.484 401.754> 861 102<891 1027.82>
DStem2: 560 722 454 536 0.95898 -0.283472<-227.03 322.701>
LayerCount: 2
Fore
SplineSet
122 906 m 128,-1,1
 122 1057 122 1057 235 1146 c 128,-1,2
 348 1235 348 1235 537 1235 c 128,-1,3
 726 1235 726 1235 963 1146 c 1,4,-1
 963 891 l 1,5,-1
 861 891 l 1,6,7
 847 1016 847 1016 776 1072 c 0,8,9
 705 1127 705 1127 573 1127 c 0,10,11
 571 1127 571 1127 568 1127 c 0,12,13
 298 1127 298 1127 298 938 c 0,14,15
 298 858 298 858 348 812.5 c 128,-1,16
 398 767 398 767 560 722 c 1,17,-1
 708 678 l 2,18,19
 882 627 882 627 956.5 547 c 128,-1,20
 1031 467 1031 467 1031 333 c 0,21,22
 1031 -35 1031 -35 566 -35 c 0,23,24
 360 -35 360 -35 138 67 c 1,25,-1
 138 336 l 1,26,-1
 242 336 l 1,27,28
 242 202 242 202 320 137.5 c 128,-1,29
 398 73 398 73 548 73 c 0,30,31
 850 73 850 73 850 280 c 0,32,33
 850 361 850 361 804.5 404.5 c 128,-1,34
 759 448 759 448 613 489 c 1,35,-1
 454 536 l 2,36,37
 271 591 271 591 196.5 673 c 128,-1,0
 122 755 122 755 122 906 c 128,-1,1
EndSplineSet
Validated: 19457
EndChar

StartChar: t
Encoding: 116 116 102
Width: 1394
VWidth: 0
Flags: W
HStem: 0 106<443 597 780 934> 851 352<133 244 1133 1244> 1084 119<244 597 780 1133>
VStem: 133 111<851 1084> 597 183<106 1084> 1133 111<851 1084>
CounterMasks: 1 1c
LayerCount: 2
Fore
SplineSet
133 851 m 1,0,-1
 133 1203 l 1,1,-1
 1244 1203 l 1,2,-1
 1244 851 l 1,3,-1
 1133 851 l 1,4,-1
 1133 1084 l 1,5,-1
 780 1084 l 1,6,-1
 780 106 l 1,7,-1
 934 106 l 1,8,-1
 934 0 l 1,9,-1
 443 0 l 1,10,-1
 443 106 l 1,11,-1
 597 106 l 1,12,-1
 597 1084 l 1,13,-1
 244 1084 l 1,14,-1
 244 851 l 1,15,-1
 133 851 l 1,0,-1
EndSplineSet
Validated: 19457
EndChar

StartChar: u
Encoding: 117 117 103
Width: 1516
VWidth: 0
Flags: W
HStem: -23 131<577.37 989.336> 1096 107<111 265 448 602 964 1118 1229 1382>
VStem: 265 183<246.858 1096> 1118 111<245.625 1096>
LayerCount: 2
Fore
SplineSet
111 1096 m 1,0,-1
 111 1203 l 1,1,-1
 602 1203 l 1,2,-1
 602 1096 l 1,3,-1
 448 1096 l 1,4,-1
 448 502 l 2,5,6
 448 282 448 282 523.5 195 c 128,-1,7
 599 108 599 108 783 108 c 256,8,9
 967 108 967 108 1042.5 195 c 128,-1,10
 1118 282 1118 282 1118 502 c 2,11,-1
 1118 1096 l 1,12,-1
 964 1096 l 1,13,-1
 964 1203 l 1,14,-1
 1382 1203 l 1,15,-1
 1382 1096 l 1,16,-1
 1229 1096 l 1,17,-1
 1229 470 l 1,18,19
 1229 200 1229 200 1118 88.5 c 128,-1,20
 1007 -23 1007 -23 749 -23 c 256,21,22
 487 -23 487 -23 376 89.5 c 128,-1,23
 265 202 265 202 265 470 c 2,24,-1
 265 1096 l 1,25,-1
 111 1096 l 1,0,-1
EndSplineSet
Validated: 19457
EndChar

StartChar: v
Encoding: 118 118 104
Width: 1407
VWidth: 0
Flags: HW
HStem: 0 21G<621.788 786.248> 1096 107<60 180 392 514 977 1116 1230 1347>
DStem2: 392 1096 180 1096 0.379816 -0.925062<0 950.243> 753 217 778 0 0.381259 0.924468<0 951.005>
LayerCount: 2
Fore
SplineSet
60 1096 m 1,0,-1
 60 1203 l 1,1,-1
 514 1203 l 1,2,-1
 514 1096 l 1,3,-1
 392 1096 l 1,4,-1
 753 217 l 1,5,-1
 1116 1096 l 1,6,-1
 977 1096 l 1,7,-1
 977 1203 l 1,8,-1
 1347 1203 l 1,9,-1
 1347 1096 l 1,10,-1
 1230 1096 l 1,11,-1
 778 0 l 1,12,-1
 630 0 l 1,13,-1
 180 1096 l 1,14,-1
 60 1096 l 1,0,-1
EndSplineSet
EndChar

StartChar: w
Encoding: 119 119 105
Width: 1909
VWidth: 0
Flags: HW
HStem: 0 21G<509.85 671.381 1256.58 1400.15> 1096 107<60 179 373 526 1483 1631 1731 1849>
DStem2: 373 1096 179 1096 0.293902 -0.955836<0 898.653> 637 237 665 0 0.303774 0.952744<0 763.093> 1066 1203 963 934 0.305393 -0.952226<224.693 998.712> 1371 252 1394 0 0.293902 0.955836<0 883.14>
LayerCount: 2
Fore
SplineSet
60 1096 m 1,0,-1
 60 1203 l 1,1,-1
 526 1203 l 1,2,-1
 526 1096 l 1,3,-1
 373 1096 l 1,4,-1
 637 237 l 1,5,-1
 945 1203 l 1,6,-1
 1066 1203 l 1,7,-1
 1371 252 l 1,8,-1
 1631 1096 l 1,9,-1
 1483 1096 l 1,10,-1
 1483 1203 l 1,11,-1
 1849 1203 l 1,12,-1
 1849 1096 l 1,13,-1
 1731 1096 l 1,14,-1
 1394 0 l 1,15,-1
 1263 0 l 1,16,-1
 963 934 l 1,17,-1
 665 0 l 1,18,-1
 516 0 l 1,19,-1
 179 1096 l 1,20,-1
 60 1096 l 1,0,-1
EndSplineSet
EndChar

StartChar: x
Encoding: 120 120 106
Width: 1492
VWidth: 0
Flags: W
HStem: 0 106<143 281 406 546 844 998 1245 1373> 1096 107<140 269 515 634 874 1048 1172 1307>
DStem2: 515 1096 269 1096 0.593476 -0.804851<0 437.612 596.436 1083.45> 281 106 406 106 0.612447 0.790512<76.5559 572.008 806.895 1252.35>
LayerCount: 2
Fore
SplineSet
140 1096 m 1,0,-1
 140 1203 l 1,1,-1
 634 1203 l 1,2,-1
 634 1096 l 1,3,-1
 515 1096 l 1,4,-1
 775 744 l 1,5,-1
 1048 1096 l 1,6,-1
 874 1096 l 1,7,-1
 874 1203 l 1,8,-1
 1307 1203 l 1,9,-1
 1307 1096 l 1,10,-1
 1172 1096 l 1,11,-1
 835 661 l 1,12,-1
 1245 106 l 1,13,-1
 1373 106 l 1,14,-1
 1373 0 l 1,15,-1
 844 0 l 1,16,-1
 844 106 l 1,17,-1
 998 106 l 1,18,-1
 709 498 l 1,19,-1
 406 106 l 1,20,-1
 546 106 l 1,21,-1
 546 0 l 1,22,-1
 143 0 l 1,23,-1
 143 106 l 1,24,-1
 281 106 l 1,25,-1
 649 581 l 1,26,-1
 269 1096 l 1,27,-1
 140 1096 l 1,0,-1
EndSplineSet
Validated: 19457
EndChar

StartChar: y
Encoding: 121 121 107
Width: 1306
VWidth: 0
Flags: HW
HStem: 0 106<404 570 753 914> 1096 107<60 172 404 530 886 1014 1132 1246>
VStem: 570 183<106 528>
DStem2: 404 1096 172 1096 0.573849 -0.818961<0 541.841> 716 653 753 535 0.559803 0.828626<0 533.902>
LayerCount: 2
Fore
SplineSet
60 1096 m 1,0,-1
 60 1203 l 1,1,-1
 530 1203 l 1,2,-1
 530 1096 l 1,3,-1
 404 1096 l 1,4,-1
 716 653 l 1,5,-1
 1014 1096 l 1,6,-1
 886 1096 l 1,7,-1
 886 1203 l 1,8,-1
 1246 1203 l 1,9,-1
 1246 1096 l 1,10,-1
 1132 1096 l 1,11,-1
 753 535 l 1,12,-1
 753 106 l 1,13,-1
 914 106 l 1,14,-1
 914 0 l 1,15,-1
 404 0 l 1,16,-1
 404 106 l 1,17,-1
 570 106 l 1,18,-1
 570 528 l 1,19,-1
 172 1096 l 1,20,-1
 60 1096 l 1,0,-1
EndSplineSet
EndChar

StartChar: z
Encoding: 122 122 108
Width: 1359
VWidth: 0
Flags: W
HStem: 0 123<409 1099> 1080 123<274 929>
VStem: 163 111<909 1080> 1099 110<123 283>
DStem2: 129 72 409 123 0.621658 0.783289<214.012 1286.88>
LayerCount: 2
Fore
SplineSet
129 0 m 1,0,-1
 129 72 l 1,1,-1
 929 1080 l 1,2,-1
 274 1080 l 1,3,-1
 274 909 l 1,4,-1
 163 909 l 1,5,-1
 163 1203 l 1,6,-1
 1209 1203 l 1,7,-1
 1209 1131 l 1,8,-1
 409 123 l 1,9,-1
 1099 123 l 1,10,-1
 1099 283 l 1,11,-1
 1209 283 l 1,12,-1
 1209 0 l 1,13,-1
 129 0 l 1,0,-1
EndSplineSet
Validated: 19457
EndChar
